if (_typeface_js && _typeface_js.loadFace) _typeface_js.loadFace({"glyphs":{"¦":{"x_min":253,"x_max":444,"ha":694,"o":"m 444 277 l 444 -237 l 253 -237 l 253 277 l 444 277 m 444 971 l 444 457 l 253 457 l 253 971 l 444 971 "},"Ž":{"x_min":45,"x_max":650,"ha":694,"o":"m 45 0 l 45 194 l 364 844 l 71 844 l 71 1044 l 635 1044 l 635 862 l 314 214 l 650 214 l 650 0 l 45 0 m 132 1325 l 228 1325 l 347 1223 l 465 1325 l 562 1325 l 427 1132 l 266 1132 l 132 1325 "},"Á":{"x_min":10,"x_max":753,"ha":764,"o":"m 311 389 l 452 389 l 382 844 l 311 389 m 10 0 l 237 1044 l 527 1044 l 753 0 l 508 0 l 478 200 l 286 200 l 256 0 l 10 0 m 272 1132 l 406 1325 l 607 1325 l 369 1132 l 272 1132 "},"Î":{"x_min":-8,"x_max":422,"ha":414,"o":"m 85 0 l 85 1044 l 329 1044 l 329 0 l 85 0 m -8 1132 l 126 1325 l 287 1325 l 422 1132 l 325 1132 l 207 1233 l 88 1132 l -8 1132 "},"e":{"x_min":54,"x_max":633,"ha":692,"o":"m 423 276 l 628 276 l 628 256 q 557 48 628 118 q 342 -21 485 -21 q 212 0 270 -21 q 121 55 154 19 q 69 165 85 97 q 54 384 54 234 q 69 616 54 550 q 124 725 85 682 q 219 785 161 765 q 352 806 276 806 q 485 783 429 806 q 577 718 542 761 q 620 631 607 681 q 633 457 633 580 l 633 363 l 276 363 q 275 354 275 359 q 272 285 272 304 q 290 170 272 202 q 350 138 307 138 q 407 162 388 138 q 426 237 426 187 q 424 269 426 248 q 423 276 423 273 m 281 499 l 429 499 q 429 503 429 500 q 431 544 431 532 q 413 629 431 602 q 354 657 394 657 q 297 630 314 657 q 280 542 280 603 q 280 515 280 525 q 281 499 280 506 "},"»":{"x_min":82,"x_max":672,"ha":749,"o":"m 419 304 l 555 390 l 419 482 l 419 656 l 672 490 l 672 290 l 419 129 l 419 304 m 82 304 l 218 390 l 82 482 l 82 656 l 335 490 l 335 290 l 82 129 l 82 304 "},"∆":{"x_min":-4,"x_max":1023,"ha":1021,"o":"m 649 210 l 509 687 l 369 210 l 649 210 m 671 999 l 1023 0 l -4 0 l 347 999 l 671 999 "},"ò":{"x_min":53,"x_max":636,"ha":690,"o":"m 275 392 q 289 184 275 226 q 344 143 304 143 q 399 183 384 143 q 414 392 414 223 q 399 601 414 561 q 344 642 384 642 q 289 599 304 642 q 275 392 275 557 m 53 392 q 118 713 53 621 q 344 806 184 806 q 570 714 504 806 q 636 392 636 622 q 570 70 636 162 q 344 -21 504 -21 q 118 70 183 -21 q 53 392 53 161 m 458 868 l 360 868 l 123 1061 l 323 1061 l 458 868 "},"^":{"x_min":279,"x_max":1108,"ha":1389,"o":"m 808 991 l 1108 608 l 902 608 l 694 817 l 484 608 l 279 608 l 578 991 l 808 991 "},"«":{"x_min":77,"x_max":667,"ha":749,"o":"m 330 479 l 193 394 l 330 302 l 330 129 l 77 294 l 77 494 l 330 656 l 330 479 m 667 479 l 530 394 l 667 302 l 667 129 l 414 294 l 414 494 l 667 656 l 667 479 "},"∙":{"x_min":61,"x_max":313,"ha":374,"o":"m 61 517 q 97 606 61 570 q 185 642 133 642 q 276 606 239 642 q 313 517 313 570 q 275 426 313 463 q 185 389 238 389 q 97 425 133 389 q 61 517 61 462 "},"í":{"x_min":73,"x_max":408,"ha":367,"o":"m 74 0 l 74 785 l 292 785 l 292 0 l 74 0 m 73 868 l 207 1061 l 408 1061 l 170 868 l 73 868 "},"ˆ":{"x_min":132,"x_max":562,"ha":694,"o":"m 132 868 l 266 1061 l 427 1061 l 562 868 l 465 868 l 347 969 l 228 868 l 132 868 "},"µ":{"x_min":-20,"x_max":900,"ha":930,"o":"m 408 737 l 351 320 q 349 297 349 305 q 348 284 348 289 q 369 216 348 238 q 434 194 391 194 q 518 229 488 194 q 559 338 549 264 l 616 737 l 900 737 l 792 0 l 543 0 l 555 88 q 499 19 531 42 q 427 -3 467 -3 q 356 18 386 -3 q 308 81 326 39 l 259 -286 l -20 -286 l 122 737 l 408 737 "},"č":{"x_min":53,"x_max":627,"ha":686,"o":"m 409 309 l 625 309 q 626 293 625 302 q 627 278 627 283 q 557 53 627 127 q 344 -21 487 -21 q 118 70 183 -21 q 53 392 53 161 q 118 714 53 622 q 344 806 184 806 q 556 732 488 806 q 624 502 624 658 l 624 489 l 412 489 l 412 511 q 396 612 412 582 q 345 642 381 642 q 289 601 304 642 q 275 392 275 561 q 289 184 275 228 q 344 140 304 140 q 395 171 379 140 q 411 272 411 203 q 410 289 411 277 q 409 309 409 302 m 136 1061 l 232 1061 l 351 959 l 469 1061 l 566 1061 l 431 868 l 270 868 l 136 1061 "},"’":{"x_min":83,"x_max":295,"ha":379,"o":"m 83 1044 l 295 1044 l 295 845 q 242 681 295 739 q 83 612 189 623 l 83 690 q 167 733 140 701 q 195 823 193 764 l 83 823 l 83 1044 "},"-":{"x_min":58,"x_max":482,"ha":541,"o":"m 58 288 l 58 498 l 482 498 l 482 288 l 58 288 "},"Q":{"x_min":62,"x_max":762,"ha":828,"o":"m 511 427 l 511 616 q 489 830 511 789 q 409 872 467 872 q 332 829 354 872 q 311 616 311 787 l 311 427 q 332 215 311 258 q 411 172 354 172 q 489 214 467 172 q 511 427 511 256 m 460 -23 q 424 -26 442 -25 q 388 -28 406 -28 q 254 -5 313 -28 q 156 60 196 16 q 83 204 104 116 q 62 522 62 293 q 75 798 62 711 q 120 933 88 885 q 236 1034 164 1001 q 411 1068 308 1068 q 585 1034 514 1068 q 701 933 657 1001 q 747 790 733 883 q 762 522 762 698 q 736 194 762 288 q 647 51 711 100 l 734 -41 l 594 -171 l 460 -23 "},"M":{"x_min":85,"x_max":1021,"ha":1108,"o":"m 85 0 l 85 1044 l 426 1044 l 519 599 q 530 516 520 596 q 553 355 541 435 q 575 504 561 415 q 590 603 588 593 l 682 1044 l 1021 1044 l 1021 0 l 790 0 l 811 806 l 646 0 l 460 0 l 294 806 l 316 0 l 85 0 "},"œ":{"x_min":54,"x_max":989,"ha":1048,"o":"m 276 391 q 290 184 276 226 q 344 143 304 143 q 400 182 385 143 q 415 391 415 222 q 400 600 415 560 q 345 641 385 641 q 290 598 305 641 q 276 391 276 556 m 633 500 l 781 499 q 781 506 781 502 q 783 547 783 534 q 765 630 783 603 q 708 657 746 657 q 650 629 668 657 q 631 542 631 602 q 632 516 631 525 q 633 500 632 506 m 989 365 l 636 365 q 636 357 636 362 q 633 273 633 301 q 650 167 633 195 q 710 139 667 139 q 765 164 746 139 q 783 240 783 190 q 783 262 783 255 q 782 277 783 270 l 984 277 l 984 257 q 911 48 984 118 q 693 -21 839 -21 q 604 -9 646 -21 q 522 25 561 2 q 442 -12 485 0 q 347 -25 399 -25 q 121 68 188 -25 q 54 391 54 162 q 120 713 54 616 q 338 811 187 811 q 434 798 387 811 q 526 758 480 785 q 620 794 571 782 q 725 806 668 806 q 845 783 792 806 q 933 718 899 761 q 976 629 963 681 q 989 459 989 577 l 989 365 "},"{":{"x_min":98,"x_max":614,"ha":694,"o":"m 614 809 q 598 809 608 809 q 584 810 588 810 q 505 790 525 810 q 485 703 485 769 l 485 542 q 453 413 485 451 q 337 361 421 376 q 453 308 421 345 q 485 181 485 271 l 485 17 q 505 -67 485 -47 q 583 -88 525 -88 q 598 -87 588 -88 q 614 -87 608 -87 l 614 -280 l 559 -280 q 416 -272 465 -280 q 335 -249 366 -265 q 277 -192 294 -229 q 261 -65 261 -155 l 261 109 q 229 231 261 195 q 121 266 197 266 q 110 265 118 266 q 98 265 102 265 l 98 458 q 110 457 102 458 q 121 456 118 456 q 229 491 197 456 q 261 612 261 526 l 261 786 q 277 913 261 876 q 335 971 294 951 q 416 994 367 987 q 559 1002 466 1002 l 614 1002 l 614 809 "},"¼":{"x_min":57,"x_max":1143,"ha":1169,"o":"m 962 213 l 962 446 l 841 213 l 962 213 m 946 0 l 946 113 l 729 113 l 729 224 l 935 578 l 1086 578 l 1086 213 l 1143 213 l 1143 113 l 1086 113 l 1086 0 l 946 0 m 352 -21 l 237 -21 l 816 1051 l 931 1051 l 352 -21 m 187 453 l 187 858 l 57 858 l 57 947 l 63 947 q 177 970 134 947 q 232 1042 219 994 l 335 1042 l 335 453 l 187 453 "},"#":{"x_min":-4,"x_max":1072,"ha":1068,"o":"m 641 565 l 479 565 l 426 421 l 588 421 l 641 565 m 636 997 l 548 748 l 702 748 l 789 997 l 985 997 l 898 748 l 1072 748 l 1004 565 l 833 565 l 781 421 l 956 421 l 888 238 l 716 238 l 627 -11 l 431 -11 l 520 238 l 366 238 l 278 -11 l 82 -11 l 170 238 l -4 238 l 63 421 l 235 421 l 286 565 l 111 565 l 177 748 l 352 748 l 440 997 l 636 997 "},"Ê":{"x_min":85,"x_max":653,"ha":720,"o":"m 85 0 l 85 1044 l 653 1044 l 653 841 l 328 841 l 328 650 l 627 650 l 627 440 l 328 440 l 328 212 l 653 212 l 653 0 l 85 0 m 154 1132 l 288 1325 l 449 1325 l 584 1132 l 487 1132 l 369 1233 l 250 1132 l 154 1132 "},")":{"x_min":41,"x_max":369,"ha":467,"o":"m 48 -264 q 133 73 105 -92 q 162 398 162 239 q 131 726 162 565 q 41 1046 101 888 l 210 1046 q 329 726 290 888 q 369 389 369 565 q 332 65 369 226 q 219 -264 295 -95 l 48 -264 "},"Å":{"x_min":10,"x_max":753,"ha":764,"o":"m 327 1202 q 344 1163 327 1180 q 382 1147 361 1147 q 420 1162 405 1147 q 436 1202 436 1178 q 421 1239 436 1224 q 382 1255 406 1255 q 343 1239 359 1255 q 327 1202 327 1224 m 246 1201 q 285 1296 246 1256 q 382 1337 325 1337 q 477 1297 438 1337 q 517 1201 517 1257 q 477 1104 517 1144 q 382 1065 438 1065 q 285 1105 325 1065 q 246 1201 246 1145 m 312 389 l 452 389 l 382 844 l 312 389 m 10 0 l 235 1029 l 527 1029 l 753 0 l 508 0 l 478 200 l 286 200 l 256 0 l 10 0 "},"¸":{"x_min":183,"x_max":522,"ha":694,"o":"m 183 -295 l 183 -206 q 273 -223 231 -217 q 340 -229 315 -229 q 382 -217 369 -229 q 396 -181 396 -206 q 377 -150 396 -160 q 319 -140 358 -140 q 307 -140 315 -140 q 294 -141 298 -141 l 294 0 l 371 0 l 371 -55 q 482 -88 442 -55 q 522 -182 522 -121 q 478 -285 522 -248 q 355 -322 434 -322 q 263 -315 308 -322 q 183 -295 218 -308 "},"a":{"x_min":43,"x_max":682.8125,"ha":725,"o":"m 426 377 q 302 318 341 353 q 263 230 263 283 q 282 170 263 192 q 334 148 301 148 q 404 180 382 148 q 426 290 426 213 l 426 377 m 453 0 l 440 71 q 350 6 399 28 q 243 -16 301 -16 q 96 43 150 -16 q 43 205 43 103 q 88 352 43 294 q 239 451 134 409 q 307 476 264 461 q 430 577 430 521 q 412 630 430 612 q 361 648 394 648 q 302 624 321 648 q 283 550 283 600 l 283 545 l 63 545 q 136 742 63 677 q 361 807 210 807 q 482 794 429 807 q 571 758 535 781 q 636 683 617 727 q 655 522 655 639 l 655 498 l 655 219 q 661 78 655 127 q 682 0 667 30 l 453 0 "},"=":{"x_min":172,"x_max":984,"ha":1157,"o":"m 984 347 l 984 163 l 172 163 l 172 347 l 984 347 m 984 666 l 984 482 l 172 482 l 172 666 l 984 666 "},"˚":{"x_min":193,"x_max":503,"ha":694,"o":"m 289 1016 q 306 975 289 992 q 348 959 323 959 q 390 975 373 959 q 407 1016 407 991 q 390 1059 407 1042 q 348 1077 373 1077 q 305 1059 322 1077 q 289 1016 289 1042 m 193 1019 q 237 1128 193 1083 q 347 1173 282 1173 q 457 1127 411 1173 q 503 1019 503 1082 q 457 908 503 954 q 347 863 411 863 q 237 908 282 863 q 193 1019 193 953 "},"ú":{"x_min":69,"x_max":640,"ha":718,"o":"m 640 785 l 640 0 l 434 0 l 434 92 q 352 10 397 36 q 245 -16 306 -16 q 111 45 154 -16 q 69 237 69 106 l 69 785 l 289 785 l 289 299 q 301 182 289 205 q 344 160 313 160 q 401 195 380 160 q 422 294 422 230 l 422 785 l 640 785 m 248 868 l 382 1061 l 583 1061 l 345 868 l 248 868 "},"¯":{"x_min":144,"x_max":550,"ha":694,"o":"m 144 909 l 144 1019 l 550 1019 l 550 909 l 144 909 "},"Z":{"x_min":45,"x_max":650,"ha":694,"o":"m 45 0 l 45 194 l 364 844 l 71 844 l 71 1044 l 635 1044 l 635 862 l 314 214 l 650 214 l 650 0 l 45 0 "},"u":{"x_min":69,"x_max":640,"ha":718,"o":"m 640 785 l 640 0 l 434 0 l 434 92 q 352 10 397 36 q 245 -16 306 -16 q 111 45 154 -16 q 69 237 69 106 l 69 785 l 289 785 l 289 299 q 301 182 289 205 q 344 160 313 160 q 401 195 380 160 q 422 294 422 230 l 422 785 l 640 785 "},"k":{"x_min":74,"x_max":685,"ha":685,"o":"m 74 0 l 74 1044 l 289 1044 l 289 527 l 461 785 l 681 785 l 451 485 l 685 0 l 465 0 l 324 319 l 289 269 l 289 0 l 74 0 "},"Ù":{"x_min":85,"x_max":744,"ha":828,"o":"m 85 1044 l 332 1044 l 332 389 q 350 206 332 241 q 417 171 369 171 q 483 207 465 171 q 502 389 502 244 l 502 1044 l 744 1044 l 744 377 q 734 208 744 264 q 701 111 724 152 q 594 7 664 40 q 410 -25 523 -25 q 239 5 305 -25 q 135 104 173 36 q 96 227 107 152 q 85 482 85 303 l 85 1044 m 526 1132 l 428 1132 l 191 1325 l 391 1325 l 526 1132 "},"¢":{"x_min":85,"x_max":657,"ha":745,"o":"m 441 327 l 657 327 l 657 295 q 603 87 657 158 q 437 1 549 15 l 437 -186 l 309 -186 l 309 1 q 135 109 186 18 q 85 411 85 201 q 136 710 85 616 q 309 821 188 804 l 309 986 l 437 986 l 437 822 q 601 734 547 808 q 655 523 655 660 l 655 509 l 443 509 l 443 530 q 428 632 443 602 q 377 662 413 662 q 321 621 336 662 q 307 411 307 581 q 321 202 307 244 q 376 160 336 160 q 425 192 409 160 q 441 292 441 224 l 441 327 "},"Ş":{"x_min":50,"x_max":682,"ha":729,"o":"m 52 354 l 277 354 l 277 323 q 297 202 277 237 q 365 167 317 167 q 426 193 404 167 q 449 266 449 220 q 339 412 449 342 q 312 430 322 424 l 301 438 q 117 587 153 537 q 78 672 92 625 q 65 776 65 719 q 144 991 65 913 q 362 1069 223 1069 q 593 992 513 1069 q 673 770 673 915 q 672 753 673 764 q 671 737 671 743 l 453 737 l 453 749 q 431 853 453 818 q 369 889 410 889 q 314 864 335 889 q 293 798 293 839 q 412 657 293 732 q 445 636 434 643 q 472 619 455 630 q 635 482 600 537 q 670 400 658 446 q 682 301 682 354 q 600 59 682 144 q 368 -25 519 -25 q 129 56 209 -25 q 50 297 50 137 q 50 318 50 307 q 52 354 50 329 m 201 -295 l 201 -206 q 291 -223 249 -217 q 358 -229 333 -229 q 400 -217 387 -229 q 414 -181 414 -206 q 395 -150 414 -160 q 337 -140 376 -140 q 325 -140 333 -140 q 312 -141 316 -141 l 312 0 l 389 0 l 389 -55 q 500 -88 460 -55 q 540 -182 540 -121 q 496 -285 540 -248 q 373 -322 452 -322 q 281 -315 326 -322 q 201 -295 236 -308 "},"é":{"x_min":54,"x_max":633,"ha":692,"o":"m 423 276 l 628 276 l 628 256 q 557 48 628 118 q 342 -21 485 -21 q 212 0 270 -21 q 121 55 154 19 q 69 165 85 97 q 54 384 54 234 q 69 616 54 550 q 124 725 85 682 q 219 785 161 765 q 352 806 276 806 q 485 783 429 806 q 577 718 542 761 q 620 631 607 681 q 633 457 633 580 l 633 363 l 276 363 q 275 354 275 359 q 272 285 272 304 q 290 170 272 202 q 350 138 307 138 q 407 162 388 138 q 426 237 426 187 q 424 269 426 248 q 423 276 423 273 m 281 499 l 429 499 q 429 503 429 500 q 431 544 431 532 q 413 629 431 602 q 354 657 394 657 q 297 630 314 657 q 280 542 280 603 q 280 515 280 525 q 281 499 280 506 m 244 868 l 378 1061 l 579 1061 l 341 868 l 244 868 "},"B":{"x_min":85,"x_max":750,"ha":806,"o":"m 329 635 l 344 635 q 450 665 416 635 q 485 758 485 695 q 451 843 485 813 q 354 873 417 873 q 338 872 343 873 q 329 871 333 872 l 329 635 m 329 184 l 350 184 q 465 219 426 184 q 504 326 504 255 q 466 424 504 393 q 345 455 428 455 l 329 455 l 329 184 m 85 0 l 85 1044 l 347 1044 q 518 1034 466 1044 q 608 1002 570 1024 q 693 912 664 968 q 722 781 722 857 q 695 660 722 713 q 609 557 668 607 q 714 461 679 521 q 750 316 750 400 q 726 184 750 246 q 659 77 702 121 q 559 17 619 35 q 375 0 499 0 l 85 0 "},"…":{"x_min":111,"x_max":1278,"ha":1389,"o":"m 111 0 l 111 239 l 352 239 l 352 0 l 111 0 m 573 0 l 573 239 l 814 239 l 814 0 l 573 0 m 1037 0 l 1037 239 l 1278 239 l 1278 0 l 1037 0 "},"H":{"x_min":85,"x_max":764,"ha":848,"o":"m 85 0 l 85 1044 l 329 1044 l 329 649 l 525 649 l 525 1044 l 764 1044 l 764 0 l 525 0 l 525 433 l 329 433 l 329 0 l 85 0 "},"î":{"x_min":-32,"x_max":398,"ha":367,"o":"m 74 0 l 74 785 l 292 785 l 292 0 l 74 0 m -32 868 l 102 1061 l 263 1061 l 398 868 l 301 868 l 183 969 l 64 868 l -32 868 "},"−":{"x_min":172,"x_max":984,"ha":1157,"o":"m 984 509 l 984 321 l 172 321 l 172 509 l 984 509 "},"≠":{"x_min":172,"x_max":984,"ha":1157,"o":"m 938 756 l 862 662 l 984 662 l 984 486 l 741 486 l 624 343 l 984 343 l 984 165 l 506 165 l 342 -37 l 208 70 l 284 165 l 172 165 l 172 343 l 402 343 l 517 486 l 172 486 l 172 662 l 639 662 l 805 866 l 938 756 "},"¥":{"x_min":13,"x_max":731.359375,"ha":745,"o":"m 256 0 l 256 408 l 13 408 l 13 530 l 208 530 l 170 626 l 13 626 l 13 748 l 121 748 l 13 1029 l 269 1029 l 371 651 l 478 1029 l 731 1029 l 622 748 l 730 748 l 730 626 l 572 626 l 536 530 l 730 530 l 730 408 l 489 408 l 489 0 l 256 0 "},"U":{"x_min":85,"x_max":744,"ha":828,"o":"m 85 1044 l 332 1044 l 332 389 q 350 206 332 241 q 417 171 369 171 q 483 207 465 171 q 502 389 502 244 l 502 1044 l 744 1044 l 744 377 q 734 208 744 264 q 701 111 724 152 q 594 7 664 40 q 410 -25 523 -25 q 239 5 305 -25 q 135 104 173 36 q 96 227 107 152 q 85 482 85 303 l 85 1044 "},"Ñ":{"x_min":85,"x_max":736,"ha":822,"o":"m 85 0 l 85 1044 l 339 1044 l 541 399 q 523 680 529 562 q 518 879 518 798 l 518 1044 l 736 1044 l 736 0 l 480 0 l 277 663 q 297 412 290 534 q 305 176 305 290 l 305 0 l 85 0 m 274 1141 l 206 1140 q 256 1258 221 1219 q 345 1298 290 1298 q 369 1296 358 1298 q 392 1292 381 1295 l 479 1270 q 496 1267 488 1268 q 514 1266 505 1266 q 553 1279 537 1266 q 574 1317 568 1292 l 643 1317 q 591 1198 629 1240 q 498 1156 554 1156 q 477 1157 487 1156 q 457 1161 467 1158 l 364 1184 q 350 1187 358 1186 q 336 1189 343 1189 q 296 1176 311 1189 q 274 1141 280 1164 "},"F":{"x_min":85,"x_max":655,"ha":713,"o":"m 85 0 l 85 1044 l 655 1044 l 655 841 l 331 841 l 331 651 l 631 651 l 631 441 l 331 441 l 331 0 l 85 0 "},"*":{"x_min":53,"x_max":639,"ha":694,"o":"m 346 649 l 227 482 l 111 561 l 242 725 l 53 778 l 97 916 l 278 850 l 278 1044 l 414 1044 l 414 850 l 592 914 l 639 775 l 450 725 l 578 563 l 462 479 l 346 649 "},"†":{"x_min":47,"x_max":647,"ha":694,"o":"m 241 -230 l 241 558 l 47 558 l 47 726 l 241 726 l 241 1044 l 450 1044 l 450 726 l 647 726 l 647 558 l 450 558 l 450 -230 l 241 -230 "},"∕":{"x_min":-232,"x_max":462,"ha":232,"o":"m -116 -21 l -232 -21 l 346 1051 l 462 1051 l -116 -21 "},"°":{"x_min":10,"x_max":447,"ha":457,"o":"m 332 781 q 301 853 332 823 q 227 884 270 884 q 155 853 185 884 q 125 781 125 823 q 155 707 125 737 q 228 677 185 677 q 301 708 271 677 q 332 781 332 739 m 229 999 q 383 935 320 999 q 447 779 447 871 q 382 626 447 690 q 228 562 318 562 q 73 625 137 562 q 10 779 10 688 q 74 934 10 870 q 229 999 139 999 "},"å":{"x_min":43,"x_max":682.8125,"ha":725,"o":"m 426 377 q 302 318 341 353 q 263 230 263 283 q 282 170 263 192 q 334 148 301 148 q 404 180 382 148 q 426 290 426 213 l 426 377 m 453 0 l 440 71 q 349 6 398 28 q 242 -16 300 -16 q 96 43 150 -16 q 43 205 43 103 q 88 352 43 294 q 239 451 134 409 q 306 476 264 461 q 429 577 429 521 q 411 630 429 612 q 361 648 394 648 q 302 624 321 648 q 283 550 283 600 l 283 545 l 63 545 q 136 742 63 677 q 361 807 210 807 q 482 794 429 807 q 571 758 535 781 q 636 683 617 727 q 655 522 655 639 l 655 498 l 655 219 q 661 78 655 127 q 682 0 667 30 l 453 0 m 321 980 q 336 943 321 959 q 374 928 352 928 q 412 943 396 928 q 428 980 428 958 q 412 1019 428 1003 q 374 1035 397 1035 q 336 1019 352 1035 q 321 980 321 1003 m 239 980 q 278 1076 239 1036 q 373 1117 318 1117 q 469 1076 429 1117 q 510 980 510 1036 q 470 885 510 924 q 373 846 430 846 q 278 885 317 846 q 239 980 239 924 "},"0":{"x_min":56,"x_max":689,"ha":745,"o":"m 291 515 l 291 438 q 308 212 291 259 q 372 165 325 165 q 436 212 418 165 q 454 438 454 259 l 454 515 l 454 608 q 436 821 454 776 q 372 867 418 867 q 308 819 325 867 q 291 591 291 772 l 291 515 m 56 515 q 67 795 56 710 q 107 924 79 880 q 215 1018 146 985 q 372 1051 283 1051 q 530 1018 461 1051 q 637 923 598 985 q 677 798 665 878 q 689 560 689 718 q 683 304 689 389 q 663 165 677 219 q 563 30 643 82 q 372 -21 482 -21 q 212 12 281 -21 q 103 111 142 46 q 66 240 77 152 q 56 515 56 327 "},"":{"x_min":77,"x_max":1021,"ha":1097,"o":"m 567 824 q 566 834 566 828 q 565 849 565 839 q 630 1005 565 934 q 790 1094 694 1077 q 791 1079 791 1087 q 791 1052 791 1070 q 721 893 791 963 q 583 823 651 823 l 578 823 q 573 824 576 823 q 567 824 570 824 m 1021 273 q 881 40 943 105 q 743 -24 820 -24 q 654 -1 709 -24 q 571 20 599 20 q 482 -1 540 20 q 396 -24 424 -24 q 309 5 353 -24 q 221 95 265 35 q 114 295 152 190 q 77 499 77 401 q 161 741 77 648 q 380 835 246 835 q 485 811 426 835 q 569 788 544 788 q 652 811 592 788 q 755 835 711 835 q 890 808 830 835 q 999 725 950 781 q 896 626 929 681 q 863 502 863 571 q 903 366 863 425 q 1021 273 944 307 "},"”":{"x_min":84,"x_max":626,"ha":708,"o":"m 413 1044 l 626 1044 l 626 845 q 572 681 626 739 q 413 612 519 623 l 413 690 q 498 732 471 701 q 526 823 524 763 l 413 823 l 413 1044 m 84 1044 l 296 1044 l 296 845 q 243 681 296 739 q 84 612 190 623 l 84 690 q 168 733 141 701 q 196 823 194 764 l 84 823 l 84 1044 "},"ö":{"x_min":53,"x_max":636,"ha":690,"o":"m 275 392 q 289 184 275 226 q 344 143 304 143 q 399 183 384 143 q 414 392 414 223 q 399 601 414 561 q 344 642 384 642 q 289 599 304 642 q 275 392 275 557 m 53 392 q 118 713 53 621 q 344 806 184 806 q 570 714 504 806 q 636 392 636 622 q 570 70 636 162 q 344 -21 504 -21 q 118 70 183 -21 q 53 392 53 161 m 386 875 l 386 1053 l 551 1053 l 551 875 l 386 875 m 146 875 l 146 1053 l 311 1053 l 311 875 l 146 875 "},"Õ":{"x_min":64,"x_max":764,"ha":828,"o":"m 514 427 l 514 616 q 492 830 514 789 q 412 872 470 872 q 334 829 356 872 q 313 616 313 787 l 313 427 q 334 215 313 258 q 413 172 356 172 q 492 214 470 172 q 514 427 514 256 m 64 522 q 77 797 64 710 q 122 932 91 883 q 239 1035 167 1001 q 414 1069 312 1069 q 587 1035 516 1069 q 704 932 659 1001 q 750 796 736 883 q 764 522 764 709 q 750 247 764 334 q 704 111 736 160 q 587 8 660 42 q 414 -25 515 -25 q 239 8 312 -25 q 122 111 167 42 q 77 246 91 160 q 64 522 64 333 m 263 1141 l 195 1140 q 245 1258 210 1219 q 334 1298 279 1298 q 358 1296 347 1298 q 381 1292 370 1295 l 468 1270 q 485 1267 477 1268 q 503 1266 494 1266 q 542 1279 526 1266 q 563 1317 557 1292 l 632 1317 q 580 1198 618 1240 q 487 1156 543 1156 q 466 1157 476 1156 q 446 1161 456 1158 l 353 1184 q 339 1187 347 1186 q 325 1189 332 1189 q 285 1176 300 1189 q 263 1141 269 1164 "},"ć":{"x_min":53,"x_max":627,"ha":686,"o":"m 409 309 l 625 309 q 626 293 625 302 q 627 278 627 283 q 557 53 627 127 q 344 -21 487 -21 q 118 70 183 -21 q 53 392 53 161 q 118 714 53 622 q 344 806 184 806 q 556 732 488 806 q 624 502 624 658 l 624 489 l 412 489 l 412 511 q 396 612 412 582 q 345 642 381 642 q 289 601 304 642 q 275 392 275 561 q 289 184 275 228 q 344 140 304 140 q 395 171 379 140 q 411 272 411 203 q 410 289 411 277 q 409 309 409 302 m 241 868 l 375 1061 l 576 1061 l 338 868 l 241 868 "},"þ":{"x_min":79,"x_max":657,"ha":711,"o":"m 364 164 q 423 212 407 164 q 439 438 439 261 q 423 584 439 545 q 369 624 408 624 q 309 578 326 624 q 292 339 292 533 q 308 201 292 239 q 364 164 324 164 m 79 -264 l 79 1044 l 297 1044 l 297 698 q 369 776 327 750 q 465 803 410 803 q 542 786 507 803 q 604 739 578 769 q 645 641 633 702 q 657 411 657 579 q 612 61 657 144 q 452 -22 568 -22 q 365 0 403 -22 q 297 69 327 23 l 297 -264 l 79 -264 "},"]":{"x_min":32,"x_max":342,"ha":467,"o":"m 32 -263 l 32 -121 l 145 -121 l 145 902 l 32 902 l 32 1044 l 342 1044 l 342 -263 l 32 -263 "},"8":{"x_min":64,"x_max":681,"ha":745,"o":"m 294 766 q 316 674 294 709 q 373 640 338 640 q 432 674 410 640 q 455 766 455 709 q 433 854 455 823 q 373 885 412 885 q 314 854 335 885 q 294 766 294 823 m 289 312 q 309 197 289 235 q 372 160 330 160 q 436 196 415 160 q 457 312 457 233 q 437 432 457 395 q 373 469 417 469 q 309 431 329 469 q 289 312 289 394 m 192 557 q 108 649 136 595 q 80 774 80 703 q 157 977 80 904 q 372 1051 235 1051 q 587 977 509 1051 q 665 774 665 904 q 636 649 665 703 q 552 557 608 595 q 648 451 615 519 q 681 292 681 384 q 599 61 681 144 q 371 -21 517 -21 q 145 62 226 -21 q 64 292 64 145 q 96 451 64 384 q 192 557 129 519 "},"R":{"x_min":85,"x_max":794,"ha":814,"o":"m 326 609 q 341 608 332 609 q 356 608 351 608 q 464 638 432 608 q 496 741 496 669 q 464 836 496 808 q 356 865 432 865 q 341 864 351 865 q 326 863 332 863 l 326 609 m 85 0 l 85 1044 l 359 1044 q 555 1031 494 1044 q 655 988 616 1018 q 721 898 699 951 q 744 770 744 844 q 712 619 744 680 q 614 518 680 558 q 734 281 727 468 l 734 277 q 735 220 734 258 q 794 0 738 44 l 507 0 q 494 68 498 32 q 490 144 490 103 q 491 204 490 169 q 493 251 493 240 q 467 381 493 346 q 376 417 442 417 l 326 417 l 326 0 l 85 0 "},"o":{"x_min":53,"x_max":636,"ha":690,"o":"m 275 392 q 289 184 275 226 q 344 143 304 143 q 399 183 384 143 q 414 392 414 223 q 399 601 414 561 q 344 642 384 642 q 289 599 304 642 q 275 392 275 557 m 53 392 q 118 713 53 621 q 344 806 184 806 q 570 714 504 806 q 636 392 636 622 q 570 70 636 162 q 344 -21 504 -21 q 118 70 183 -21 q 53 392 53 161 "},"5":{"x_min":65,"x_max":679,"ha":745,"o":"m 65 321 l 281 321 q 302 196 283 231 q 366 161 321 161 q 434 198 414 161 q 455 325 455 236 q 434 497 455 454 q 359 540 413 540 q 306 521 327 540 q 273 466 284 503 l 79 466 l 98 1034 l 638 1034 l 638 846 l 276 846 l 268 655 q 354 697 311 683 q 444 711 397 711 q 621 622 563 711 q 679 355 679 534 q 601 70 679 165 q 369 -24 523 -24 q 143 59 221 -24 q 65 301 65 143 l 65 321 "},"õ":{"x_min":53,"x_max":636,"ha":690,"o":"m 275 392 q 289 184 275 226 q 344 143 304 143 q 399 183 384 143 q 414 392 414 223 q 399 601 414 561 q 344 642 384 642 q 289 599 304 642 q 275 392 275 557 m 53 392 q 118 713 53 621 q 344 806 184 806 q 570 714 504 806 q 636 392 636 622 q 570 70 636 162 q 344 -21 504 -21 q 118 70 183 -21 q 53 392 53 161 m 198 877 l 130 876 q 180 994 145 955 q 269 1034 214 1034 q 293 1032 282 1034 q 316 1028 305 1031 l 403 1006 q 420 1003 412 1004 q 438 1002 429 1002 q 477 1015 461 1002 q 498 1053 492 1028 l 567 1053 q 515 934 553 976 q 422 892 478 892 q 401 893 411 892 q 381 897 391 894 l 288 920 q 274 923 282 922 q 260 925 267 925 q 220 912 235 925 q 198 877 204 900 "},",":{"x_min":68,"x_max":307,"ha":374,"o":"m 68 0 l 68 239 l 307 239 l 307 50 q 251 -147 307 -85 q 69 -218 196 -209 l 69 -133 q 164 -94 132 -127 q 197 0 197 -60 l 68 0 "},"d":{"x_min":60,"x_max":638,"ha":713,"o":"m 353 616 q 296 573 311 616 q 281 384 281 530 q 295 194 281 232 q 347 157 309 157 q 408 202 391 157 q 424 441 424 247 q 408 578 424 540 q 353 616 392 616 m 638 1044 l 638 0 l 436 0 l 436 86 q 360 5 405 33 q 260 -22 315 -22 q 176 -5 214 -22 q 112 41 138 11 q 71 139 83 78 q 60 369 60 201 q 104 719 60 635 q 265 803 149 803 q 352 780 315 803 q 420 712 390 758 l 420 1044 l 638 1044 "},"\"":{"x_min":46,"x_max":467,"ha":514,"o":"m 467 977 l 467 595 l 292 595 l 292 977 l 467 977 m 221 977 l 221 595 l 46 595 l 46 977 l 221 977 "},"˙":{"x_min":262,"x_max":432,"ha":694,"o":"m 262 872 l 262 1056 l 432 1056 l 432 872 l 262 872 "},"ê":{"x_min":54,"x_max":633,"ha":692,"o":"m 423 276 l 628 276 l 628 256 q 557 48 628 118 q 342 -21 485 -21 q 212 0 270 -21 q 121 55 154 19 q 69 165 85 97 q 54 384 54 234 q 69 616 54 550 q 124 725 85 682 q 219 785 161 765 q 352 806 276 806 q 485 783 429 806 q 577 718 542 761 q 620 631 607 681 q 633 457 633 580 l 633 363 l 276 363 q 275 354 275 359 q 272 285 272 304 q 290 170 272 202 q 350 138 307 138 q 407 162 388 138 q 426 237 426 187 q 424 269 426 248 q 423 276 423 273 m 281 499 l 429 499 q 429 503 429 500 q 431 544 431 532 q 413 629 431 602 q 354 657 394 657 q 297 630 314 657 q 280 542 280 603 q 280 515 280 525 q 281 499 280 506 m 139 868 l 273 1061 l 434 1061 l 569 868 l 472 868 l 354 969 l 235 868 l 139 868 "},"„":{"x_min":84,"x_max":626,"ha":708,"o":"m 413 239 l 626 239 l 626 38 q 572 -124 626 -66 q 413 -194 519 -182 l 413 -115 q 498 -73 472 -103 q 526 16 524 -42 l 413 16 l 413 239 m 84 239 l 296 239 l 296 38 q 243 -124 296 -66 q 84 -194 190 -182 l 84 -115 q 168 -72 142 -103 q 196 16 194 -42 l 84 16 l 84 239 "},"Â":{"x_min":10,"x_max":753,"ha":764,"o":"m 311 389 l 452 389 l 382 844 l 311 389 m 10 0 l 237 1044 l 527 1044 l 753 0 l 508 0 l 478 200 l 286 200 l 256 0 l 10 0 m 167 1132 l 301 1325 l 462 1325 l 597 1132 l 500 1132 l 382 1233 l 263 1132 l 167 1132 "},"Í":{"x_min":85,"x_max":432,"ha":414,"o":"m 85 0 l 85 1044 l 329 1044 l 329 0 l 85 0 m 97 1132 l 231 1325 l 432 1325 l 194 1132 l 97 1132 "},"´":{"x_min":237,"x_max":572,"ha":694,"o":"m 237 868 l 371 1061 l 572 1061 l 334 868 l 237 868 "},"Ú":{"x_min":85,"x_max":744,"ha":828,"o":"m 85 1044 l 332 1044 l 332 389 q 350 206 332 241 q 417 171 369 171 q 483 207 465 171 q 502 389 502 244 l 502 1044 l 744 1044 l 744 377 q 734 208 744 264 q 701 111 724 152 q 594 7 664 40 q 410 -25 523 -25 q 239 5 305 -25 q 135 104 173 36 q 96 227 107 152 q 85 482 85 303 l 85 1044 m 306 1132 l 440 1325 l 641 1325 l 403 1132 l 306 1132 "},"Ý":{"x_min":-9,"x_max":721,"ha":713,"o":"m 231 0 l 231 442 l -9 1044 l 253 1044 l 354 713 l 455 1044 l 721 1044 l 481 442 l 481 0 l 231 0 m 247 1132 l 381 1325 l 582 1325 l 344 1132 l 247 1132 "},"Ω":{"x_min":24,"x_max":1134,"ha":1157,"o":"m 1134 237 l 1134 0 l 685 0 l 685 272 q 753 392 730 327 q 777 530 777 457 q 722 708 777 642 q 578 775 668 775 q 434 708 488 775 q 381 530 381 642 q 404 392 381 457 q 473 272 427 327 l 473 0 l 24 0 l 24 237 l 275 237 q 129 379 178 292 q 81 583 81 465 q 217 902 81 780 q 578 1025 354 1025 q 939 902 802 1025 q 1077 583 1077 779 q 1028 379 1077 465 q 882 237 979 292 l 1134 237 "},"Ö":{"x_min":64,"x_max":764,"ha":828,"o":"m 514 427 l 514 616 q 492 830 514 789 q 412 872 470 872 q 334 829 356 872 q 313 616 313 787 l 313 427 q 334 215 313 258 q 413 172 356 172 q 492 214 470 172 q 514 427 514 256 m 64 522 q 77 797 64 710 q 122 932 91 883 q 239 1035 167 1001 q 414 1069 312 1069 q 587 1035 516 1069 q 704 932 659 1001 q 750 796 736 883 q 764 522 764 709 q 750 247 764 334 q 704 111 736 160 q 587 8 660 42 q 414 -25 515 -25 q 239 8 312 -25 q 122 111 167 42 q 77 246 91 160 q 64 522 64 333 m 451 1139 l 451 1317 l 616 1317 l 616 1139 l 451 1139 m 211 1139 l 211 1317 l 376 1317 l 376 1139 l 211 1139 "},"z":{"x_min":25,"x_max":526,"ha":551,"o":"m 25 0 l 25 155 l 291 605 l 43 605 l 43 785 l 526 785 l 526 619 l 262 176 l 526 176 l 526 0 l 25 0 "},"™":{"x_min":111,"x_max":1014,"ha":1157,"o":"m 707 996 l 774 815 l 840 996 l 1014 996 l 1014 617 l 891 617 l 891 866 l 798 617 l 751 617 l 658 866 l 658 617 l 534 617 l 534 996 l 707 996 m 468 996 l 468 894 l 358 894 l 358 617 l 221 617 l 221 894 l 111 894 l 111 996 l 468 996 "},"ã":{"x_min":43,"x_max":682.8125,"ha":725,"o":"m 426 377 q 302 318 341 353 q 263 230 263 283 q 282 170 263 192 q 334 148 301 148 q 404 180 382 148 q 426 290 426 213 l 426 377 m 453 0 l 440 71 q 350 6 399 28 q 243 -16 301 -16 q 96 43 150 -16 q 43 205 43 103 q 88 352 43 294 q 239 451 134 409 q 307 476 264 461 q 430 577 430 521 q 412 630 430 612 q 361 648 394 648 q 302 624 321 648 q 283 550 283 600 l 283 545 l 63 545 q 136 742 63 677 q 361 807 210 807 q 482 794 429 807 q 571 758 535 781 q 636 683 617 727 q 655 522 655 639 l 655 498 l 655 219 q 661 78 655 127 q 682 0 667 30 l 453 0 m 230 877 l 162 876 q 212 994 177 955 q 301 1034 246 1034 q 325 1032 314 1034 q 348 1028 337 1031 l 435 1006 q 452 1003 444 1004 q 470 1002 461 1002 q 509 1015 493 1002 q 530 1053 524 1028 l 599 1053 q 547 934 585 976 q 454 892 510 892 q 433 893 443 892 q 413 897 423 894 l 320 920 q 306 923 314 922 q 292 925 299 925 q 252 912 267 925 q 230 877 236 900 "},"æ":{"x_min":43,"x_max":993,"ha":1048,"o":"m 993 364 l 640 364 q 639 351 640 359 q 637 260 637 289 q 655 167 637 195 q 714 139 673 139 q 769 164 750 139 q 787 241 787 189 q 787 262 787 255 q 786 276 786 269 l 988 276 l 988 256 q 918 48 988 120 q 714 -24 847 -24 q 600 -4 652 -24 q 499 54 548 14 q 384 -4 441 14 q 269 -24 326 -24 q 103 37 164 -24 q 43 203 43 98 q 88 350 43 292 q 239 450 134 407 q 307 475 264 459 q 429 574 429 519 q 411 627 429 609 q 361 645 394 645 q 302 620 322 645 q 283 547 283 596 l 283 542 l 63 542 l 63 546 q 136 739 63 674 q 355 804 209 804 q 458 789 413 804 q 544 743 504 774 q 639 789 591 774 q 735 804 686 804 q 852 781 799 804 q 938 717 904 759 q 980 630 968 681 q 993 458 993 580 l 993 364 m 638 499 l 786 498 q 786 502 786 499 q 788 546 788 531 q 770 629 788 602 q 712 657 751 657 q 654 630 672 657 q 635 546 635 604 q 636 528 635 538 q 638 499 637 518 m 425 374 q 301 316 339 351 q 263 229 263 281 q 281 169 263 191 q 333 147 300 147 q 403 178 382 147 q 425 287 425 210 l 425 374 "},"É":{"x_min":85,"x_max":653,"ha":720,"o":"m 85 0 l 85 1044 l 653 1044 l 653 841 l 328 841 l 328 650 l 627 650 l 627 440 l 328 440 l 328 212 l 653 212 l 653 0 l 85 0 m 259 1132 l 393 1325 l 594 1325 l 356 1132 l 259 1132 "},"~":{"x_min":121,"x_max":1038,"ha":1157,"o":"m 1038 367 q 907 299 968 320 q 786 278 846 278 q 710 285 749 278 q 605 316 671 293 q 474 353 521 344 q 380 363 426 363 q 261 337 323 363 q 121 255 199 311 l 121 459 q 267 533 201 510 q 397 556 333 556 q 481 547 437 556 q 586 520 525 539 q 629 505 601 515 q 789 469 732 469 q 907 493 847 469 q 1038 570 968 518 l 1038 367 "},"³":{"x_min":39,"x_max":456,"ha":492,"o":"m 39 619 l 183 619 q 197 535 184 560 q 239 510 210 510 q 280 533 266 510 q 295 600 295 556 q 269 668 295 647 q 184 689 243 689 l 162 689 l 162 786 l 176 786 q 259 806 234 786 q 284 873 284 826 q 272 920 284 903 q 238 937 260 937 q 199 918 211 937 q 187 847 188 899 l 46 847 l 46 855 q 99 993 46 943 q 247 1043 152 1043 q 385 998 332 1043 q 439 885 439 954 q 415 803 439 838 q 342 744 391 768 q 427 686 399 723 q 456 592 456 649 q 400 450 456 501 q 244 400 344 400 q 93 452 147 400 q 39 601 39 505 l 39 619 "},"¡":{"x_min":108.921875,"x_max":352,"ha":460,"o":"m 170 700 l 296 700 l 352 278 l 352 0 l 108 0 l 108 278 l 170 700 m 113 1044 l 352 1044 l 352 807 l 113 807 l 113 1044 "},"[":{"x_min":118,"x_max":428,"ha":467,"o":"m 428 -263 l 118 -263 l 118 1044 l 428 1044 l 428 902 l 315 902 l 315 -121 l 428 -121 l 428 -263 "},"%":{"x_min":54,"x_max":1093,"ha":1147,"o":"m 804 252 q 817 141 804 172 q 865 111 831 111 q 914 142 900 111 q 929 252 929 173 q 914 362 929 330 q 865 395 900 395 q 817 363 831 395 q 804 252 804 332 m 640 252 q 692 463 640 400 q 866 526 745 526 q 1040 463 987 526 q 1093 252 1093 400 q 1040 42 1093 104 q 866 -20 988 -20 q 692 42 744 -20 q 640 252 640 104 m 256 -20 l 757 1051 l 889 1051 l 389 -20 l 256 -20 m 218 778 q 231 667 218 698 q 280 636 245 636 q 328 667 314 636 q 343 778 343 698 q 328 888 343 857 q 280 920 314 920 q 231 888 245 920 q 218 778 218 857 m 54 779 q 106 988 54 926 q 280 1051 158 1051 q 454 988 402 1051 q 507 779 507 926 q 454 568 507 631 q 280 505 401 505 q 106 568 158 505 q 54 779 54 631 "},"P":{"x_min":85,"x_max":746,"ha":791,"o":"m 331 595 q 343 593 336 594 q 363 593 350 593 q 468 627 436 593 q 501 736 501 661 q 466 827 501 799 q 351 855 432 855 l 331 855 l 331 595 m 85 0 l 85 1044 l 325 1044 q 521 1032 458 1044 q 628 993 584 1020 q 715 889 685 958 q 746 723 746 819 q 662 482 746 564 q 416 400 578 400 l 331 400 l 331 0 l 85 0 "},"∏":{"x_min":94,"x_max":1043,"ha":1145,"o":"m 94 999 l 1043 999 l 1043 -266 l 722 -266 l 722 733 l 415 733 l 415 -266 l 94 -266 l 94 999 "},"_":{"x_min":0,"x_max":694,"ha":694,"o":"m 694 -137 l 694 -328 l 0 -328 l 0 -137 l 694 -137 "},"ñ":{"x_min":75,"x_max":645,"ha":718,"o":"m 75 0 l 75 785 l 280 785 l 280 691 q 362 773 316 747 q 470 800 408 800 q 602 739 560 800 q 645 547 645 678 l 645 0 l 427 0 l 427 484 q 414 601 427 578 q 371 625 402 625 q 314 589 335 625 q 294 490 294 553 l 294 0 l 75 0 m 215 877 l 147 876 q 197 994 162 955 q 286 1034 231 1034 q 310 1032 299 1034 q 333 1028 322 1031 l 420 1006 q 437 1003 429 1004 q 455 1002 446 1002 q 494 1015 478 1002 q 515 1053 509 1028 l 584 1053 q 532 934 570 976 q 439 892 495 892 q 418 893 428 892 q 398 897 408 894 l 305 920 q 291 923 299 922 q 277 925 284 925 q 237 912 252 925 q 215 877 221 900 "},"‚":{"x_min":83,"x_max":295,"ha":379,"o":"m 83 239 l 295 239 l 295 38 q 242 -124 295 -66 q 83 -194 189 -182 l 83 -115 q 167 -72 141 -103 q 195 16 193 -42 l 83 16 l 83 239 "},"Æ":{"x_min":-12,"x_max":1045,"ha":1105,"o":"m 492 425 l 492 836 l 473 836 l 356 425 l 492 425 m -12 0 l 364 1044 l 1039 1044 l 1039 836 l 731 836 l 731 646 l 1023 646 l 1023 436 l 731 436 l 731 208 l 1045 208 l 1045 0 l 492 0 l 492 234 l 306 234 l 240 0 l -12 0 "},"₣":{"x_min":85,"x_max":1159,"ha":1193,"o":"m 85 0 l 85 1044 l 655 1044 l 655 841 l 331 841 l 331 651 l 631 651 l 631 441 l 331 441 l 331 0 l 85 0 m 782 0 l 782 785 l 983 785 l 983 674 q 1061 764 1018 733 q 1159 800 1104 794 l 1159 551 q 1124 557 1140 555 q 1094 559 1107 559 q 1020 521 1041 559 q 1000 376 1000 484 l 1000 0 l 782 0 "},"ğ":{"x_min":53,"x_max":629,"ha":707,"o":"m 273 495 l 273 438 q 287 242 273 284 q 339 201 302 201 q 393 238 378 201 q 409 394 409 275 l 409 426 q 394 587 409 554 q 341 621 379 621 q 289 591 306 621 q 273 495 273 561 m 629 785 l 629 81 q 617 -77 629 -26 q 578 -165 605 -129 q 477 -239 540 -214 q 324 -264 414 -264 q 120 -207 187 -264 q 53 -35 53 -151 l 268 -35 q 284 -99 268 -79 q 334 -120 300 -120 q 392 -93 376 -120 q 409 11 409 -66 l 409 104 q 326 46 365 64 q 247 29 287 29 q 146 59 190 29 q 78 148 102 90 q 59 236 65 178 q 53 384 53 293 q 57 540 53 471 q 69 651 61 608 q 131 760 82 717 q 243 803 180 803 q 341 777 296 803 q 428 697 386 751 l 428 785 l 629 785 m 141 1061 l 231 1061 q 267 997 238 1017 q 354 978 297 978 q 441 998 411 978 q 478 1060 471 1018 l 568 1061 q 506 914 557 960 q 354 868 454 868 q 203 915 255 868 q 141 1061 151 962 "},"ª":{"x_min":32,"x_max":511.015625,"ha":545,"o":"m 319 758 q 226 718 255 743 q 197 656 197 693 q 211 614 197 629 q 249 599 225 599 q 302 621 286 599 q 319 697 319 644 l 319 758 m 340 495 l 329 544 q 261 498 298 513 q 181 484 224 484 q 72 526 113 484 q 32 639 32 568 q 66 741 32 701 q 178 812 100 782 q 228 829 197 818 q 321 899 321 860 q 308 937 321 924 q 270 950 295 950 q 225 932 240 950 q 211 880 211 915 l 211 876 l 48 876 q 102 1015 48 970 q 270 1061 157 1061 q 362 1051 322 1061 q 427 1025 402 1042 q 476 974 462 1004 q 490 861 490 943 l 490 844 l 490 648 q 494 553 490 589 q 511 495 499 518 l 340 495 "},"Œ":{"x_min":64,"x_max":1081,"ha":1141,"o":"m 503 818 q 466 858 488 845 q 416 872 444 872 q 336 829 360 872 q 313 677 313 786 q 312 553 313 644 q 312 404 312 462 q 334 219 312 268 q 414 171 357 171 q 465 185 444 171 q 503 230 487 199 l 503 818 m 578 48 q 489 -7 536 10 q 386 -25 443 -25 q 234 11 304 -25 q 122 111 164 47 q 77 246 91 160 q 64 522 64 333 q 77 797 64 710 q 122 933 91 884 q 232 1031 163 995 q 380 1068 301 1068 q 487 1049 439 1068 q 578 993 535 1031 l 578 1044 l 1081 1044 l 1081 841 l 756 841 l 756 650 l 1054 650 l 1054 440 l 756 440 l 756 212 l 1081 212 l 1081 0 l 578 0 l 578 48 "},"T":{"x_min":17,"x_max":662,"ha":677,"o":"m 212 0 l 212 841 l 17 841 l 17 1044 l 662 1044 l 662 841 l 457 841 l 457 0 l 212 0 "},"š":{"x_min":27,"x_max":581,"ha":610,"o":"m 27 249 l 223 248 q 246 159 226 187 q 307 131 266 131 q 361 150 340 131 q 382 200 382 169 q 367 243 382 226 q 302 284 352 261 q 268 301 291 290 q 103 404 150 356 q 52 480 70 436 q 35 571 35 523 q 107 742 35 678 q 305 806 180 806 q 503 744 433 806 q 573 568 573 683 l 573 554 l 381 554 q 362 638 379 613 q 308 664 346 664 q 255 646 275 664 q 236 598 236 628 q 334 503 236 547 q 355 494 348 497 q 535 377 490 434 q 581 227 581 320 q 507 44 581 109 q 298 -21 434 -21 q 98 44 170 -21 q 27 229 27 110 l 27 249 m 91 1061 l 187 1061 l 306 959 l 424 1061 l 521 1061 l 386 868 l 225 868 l 91 1061 "},"Þ":{"x_min":85,"x_max":746,"ha":791,"o":"m 331 427 q 342 426 335 426 q 362 426 349 426 q 468 460 435 426 q 501 570 501 494 q 466 660 501 632 q 355 688 432 688 l 330 688 l 331 427 m 85 0 l 85 1044 l 330 1044 l 330 877 l 379 877 q 660 801 574 877 q 746 556 746 726 q 662 315 746 397 q 416 233 578 233 l 330 233 l 330 0 l 85 0 "},"j":{"x_min":4,"x_max":292,"ha":367,"o":"m 292 62 l 292 26 q 280 -138 292 -91 q 240 -214 268 -186 q 178 -250 216 -238 q 86 -262 139 -262 q 44 -260 64 -262 q 4 -256 23 -259 l 4 -94 q 11 -94 6 -94 q 18 -95 16 -95 q 61 -74 49 -95 q 74 37 74 -53 l 74 785 l 292 785 l 292 62 m 74 863 l 74 1053 l 292 1053 l 292 863 l 74 863 "},"1":{"x_min":90,"x_max":531,"ha":745,"o":"m 298 0 l 298 721 l 90 721 l 90 880 l 101 880 q 281 922 213 880 q 370 1051 348 965 l 531 1051 l 531 0 l 298 0 "},"›":{"x_min":82,"x_max":335,"ha":411,"o":"m 82 479 l 82 656 l 335 494 l 335 294 l 82 129 l 82 302 l 218 394 l 82 479 "},"<":{"x_min":179,"x_max":978,"ha":1157,"o":"m 978 635 l 434 413 l 978 191 l 978 -11 l 179 319 l 179 509 l 978 840 l 978 635 "},"t":{"x_min":17,"x_max":426,"ha":458,"o":"m 426 2 q 356 -8 386 -4 q 305 -12 326 -12 q 195 9 240 -12 q 127 69 149 30 q 107 137 113 96 q 102 262 102 178 l 102 359 l 102 623 l 17 623 l 17 785 l 102 785 l 102 1002 l 322 1002 l 322 785 l 426 785 l 426 623 l 322 623 l 322 302 q 336 176 322 200 q 394 153 351 153 q 418 155 401 153 q 426 155 423 155 l 426 2 "},"¬":{"x_min":172,"x_max":984,"ha":1157,"o":"m 984 589 l 984 249 l 800 249 l 800 409 l 172 409 l 172 589 l 984 589 "},"ù":{"x_min":69,"x_max":640,"ha":718,"o":"m 640 785 l 640 0 l 434 0 l 434 92 q 352 10 397 36 q 245 -16 306 -16 q 111 45 154 -16 q 69 237 69 106 l 69 785 l 289 785 l 289 299 q 301 182 289 205 q 344 160 313 160 q 401 195 380 160 q 422 294 422 230 l 422 785 l 640 785 m 468 868 l 370 868 l 133 1061 l 333 1061 l 468 868 "},"ï":{"x_min":-19,"x_max":386,"ha":367,"o":"m 74 0 l 74 785 l 292 785 l 292 0 l 74 0 m 221 875 l 221 1053 l 386 1053 l 386 875 l 221 875 m -19 875 l -19 1053 l 146 1053 l 146 875 l -19 875 "},"Ò":{"x_min":64,"x_max":764,"ha":828,"o":"m 514 427 l 514 616 q 492 830 514 789 q 412 872 470 872 q 334 829 356 872 q 313 616 313 787 l 313 427 q 334 215 313 258 q 413 172 356 172 q 492 214 470 172 q 514 427 514 256 m 64 522 q 77 797 64 710 q 122 932 91 883 q 239 1035 167 1001 q 414 1069 312 1069 q 587 1035 516 1069 q 704 932 659 1001 q 750 796 736 883 q 764 522 764 709 q 750 247 764 334 q 704 111 736 160 q 587 8 660 42 q 414 -25 515 -25 q 239 8 312 -25 q 122 111 167 42 q 77 246 91 160 q 64 522 64 333 m 523 1132 l 425 1132 l 188 1325 l 388 1325 l 523 1132 "},"&":{"x_min":62,"x_max":887,"ha":920,"o":"m 415 731 q 474 787 455 758 q 494 849 494 817 q 475 896 494 878 q 427 914 457 914 q 381 896 398 914 q 365 850 365 879 q 376 795 365 823 q 415 731 388 768 m 500 212 l 348 454 q 295 382 312 419 q 278 307 278 346 q 312 206 278 245 q 402 168 347 168 q 447 178 423 168 q 500 212 471 189 m 642 0 l 604 52 q 492 -5 550 13 q 369 -25 434 -25 q 146 61 231 -25 q 62 284 62 147 q 106 463 62 384 q 250 619 150 542 q 192 729 211 676 q 173 833 173 783 q 247 1003 173 936 q 437 1071 321 1071 q 623 1009 553 1071 q 693 847 693 948 q 651 701 693 766 q 521 583 609 637 l 625 416 q 647 485 639 450 q 658 554 656 520 l 840 554 q 812 388 836 469 q 743 229 787 307 l 887 0 l 642 0 "},"":{"x_min":-1,"x_max":747,"ha":745,"o":"m 747 325 l 747 322 q 670 66 734 132 q 567 2 630 25 q 434 -21 504 -21 q 275 13 344 -21 q 165 111 206 47 q 120 387 127 175 q 119 400 119 395 l -1 400 l 31 493 l 118 493 l 118 575 l 4 575 l 37 668 l 120 668 q 124 734 121 701 q 130 796 126 767 q 177 936 142 884 q 277 1019 212 987 q 352 1043 312 1035 q 434 1051 391 1051 q 576 1024 511 1051 q 680 951 641 998 q 722 873 707 917 q 744 755 737 829 l 512 755 q 488 843 506 819 q 435 867 470 867 q 395 854 412 867 q 371 819 379 842 q 359 764 363 801 q 355 668 355 726 l 620 668 l 586 575 l 353 575 l 353 493 l 557 493 l 524 400 l 353 399 q 358 275 354 319 q 369 212 362 231 q 395 176 378 188 q 437 165 411 165 q 475 176 460 165 q 500 212 491 188 q 509 251 506 227 q 515 325 512 274 l 747 325 "},"˝":{"x_min":184,"x_max":676,"ha":694,"o":"m 388 868 l 498 1061 l 676 1061 l 463 868 l 388 868 m 184 868 l 271 1061 l 441 1061 l 249 868 l 184 868 "},"I":{"x_min":85,"x_max":329,"ha":414,"o":"m 85 0 l 85 1044 l 329 1044 l 329 0 l 85 0 "},"G":{"x_min":64,"x_max":727,"ha":800,"o":"m 727 572 l 727 0 l 558 0 l 547 65 q 466 2 511 23 q 365 -18 422 -18 q 248 5 302 -18 q 154 74 194 29 q 84 221 104 129 q 64 536 64 314 q 78 789 64 694 q 122 931 92 884 q 237 1034 165 999 q 407 1069 308 1069 q 639 985 561 1069 q 717 735 717 901 q 716 716 717 729 q 715 697 715 704 l 484 697 l 484 709 q 464 838 484 799 q 402 877 445 877 q 331 829 350 877 q 312 608 312 782 l 312 505 l 312 433 q 330 214 312 259 q 398 169 348 169 q 469 208 447 169 q 492 337 492 248 q 492 369 492 358 q 491 390 491 379 l 395 390 l 395 572 l 727 572 "},"`":{"x_min":122,"x_max":457,"ha":694,"o":"m 457 868 l 359 868 l 122 1061 l 322 1061 l 457 868 "},"·":{"x_min":61,"x_max":313,"ha":374,"o":"m 61 517 q 97 606 61 570 q 185 642 133 642 q 276 606 239 642 q 313 517 313 570 q 275 426 313 463 q 185 389 238 389 q 97 425 133 389 q 61 517 61 462 "},"¿":{"x_min":36,"x_max":647,"ha":685,"o":"m 236 807 l 236 1044 l 475 1044 l 475 807 l 236 807 m 433 317 l 647 317 l 647 310 q 564 77 647 158 q 327 -4 482 -4 q 114 63 193 -4 q 36 245 36 131 q 63 368 36 307 q 165 525 90 430 l 168 529 q 252 705 252 636 l 252 717 l 459 716 q 462 691 461 704 q 464 668 464 679 q 441 560 464 612 q 351 424 419 508 l 347 418 q 273 265 273 328 q 293 195 273 220 q 351 171 314 171 q 412 203 390 171 q 435 293 435 236 q 434 305 435 297 q 433 317 433 312 "},"ý":{"x_min":11,"x_max":599,"ha":610,"o":"m 11 785 l 228 785 l 304 279 l 381 785 l 599 785 l 443 64 q 342 -203 398 -143 q 165 -264 287 -264 q 125 -261 147 -264 q 75 -255 103 -259 l 75 -91 q 79 -91 76 -91 q 112 -94 102 -94 q 168 -80 150 -94 q 185 -37 185 -66 q 172 43 185 -18 q 165 76 167 65 l 11 785 m 196 868 l 330 1061 l 531 1061 l 293 868 l 196 868 "},"º":{"x_min":40,"x_max":478,"ha":518,"o":"m 207 769 q 217 624 207 653 q 258 596 228 596 q 299 624 288 596 q 311 769 311 652 q 299 916 311 887 q 258 945 288 945 q 217 916 228 945 q 207 769 207 887 m 40 769 q 89 995 40 931 q 258 1060 138 1060 q 428 995 379 1060 q 478 769 478 931 q 428 545 478 609 q 258 482 378 482 q 88 545 137 482 q 40 769 40 608 "},"∞":{"x_min":123,"x_max":1034,"ha":1157,"o":"m 660 380 q 725 321 687 341 q 809 302 762 302 q 902 331 866 302 q 938 404 938 360 q 905 478 938 448 q 826 509 872 509 q 742 479 781 509 q 660 380 704 449 m 495 442 q 430 501 467 481 q 346 521 394 521 q 254 491 289 521 q 219 416 219 462 q 251 343 219 373 q 330 314 283 314 q 414 343 376 314 q 495 442 452 373 m 579 536 q 680 665 626 623 q 799 708 735 708 q 965 622 896 708 q 1034 410 1034 537 q 972 197 1034 279 q 814 115 911 115 q 703 150 754 115 q 575 287 651 186 q 476 157 530 199 q 357 115 422 115 q 191 200 259 115 q 123 412 123 285 q 183 626 123 544 q 341 708 244 708 q 450 672 398 708 q 579 536 501 636 "},";":{"x_min":83,"x_max":322,"ha":406,"o":"m 83 535 l 83 774 l 322 774 l 322 535 l 83 535 m 83 0 l 83 239 l 322 239 l 322 50 q 267 -147 322 -85 q 84 -218 212 -209 l 84 -133 q 179 -94 146 -127 q 212 0 212 -60 l 83 0 "},"6":{"x_min":60,"x_max":687,"ha":745,"o":"m 301 636 q 377 672 339 660 q 457 685 415 685 q 629 602 572 685 q 687 355 687 520 q 609 72 687 166 q 376 -21 532 -21 q 243 0 301 -21 q 143 66 185 22 q 78 199 97 115 q 60 503 60 283 q 69 769 60 686 q 103 905 79 853 q 207 1013 135 976 q 382 1051 279 1051 q 595 981 519 1051 q 671 787 671 912 l 671 781 l 449 781 q 430 854 447 830 q 378 879 412 879 q 318 841 336 879 q 300 710 300 804 q 300 665 300 681 q 301 636 301 650 m 295 330 q 313 196 295 235 q 378 158 332 158 q 434 195 418 158 q 451 335 451 232 q 433 472 451 435 q 370 509 415 509 q 311 470 328 509 q 295 330 295 432 "},"n":{"x_min":75,"x_max":645,"ha":718,"o":"m 75 0 l 75 785 l 280 785 l 280 691 q 362 773 316 747 q 470 800 408 800 q 602 739 560 800 q 645 547 645 678 l 645 0 l 427 0 l 427 484 q 414 601 427 578 q 371 625 402 625 q 314 589 335 625 q 294 490 294 553 l 294 0 l 75 0 "},"¤":{"x_min":-1,"x_max":747,"ha":745,"o":"m 747 325 l 747 322 q 670 66 734 132 q 567 2 630 25 q 434 -21 504 -21 q 275 13 344 -21 q 165 111 206 47 q 120 387 127 175 q 119 400 119 395 l -1 400 l 31 493 l 118 493 l 118 575 l 4 575 l 37 668 l 120 668 q 124 734 121 701 q 130 796 126 767 q 177 936 142 884 q 277 1019 212 987 q 352 1043 312 1035 q 434 1051 391 1051 q 576 1024 511 1051 q 680 951 641 998 q 722 873 707 917 q 744 755 737 829 l 512 755 q 488 843 506 819 q 435 867 470 867 q 395 854 412 867 q 371 819 379 842 q 359 764 363 801 q 355 668 355 726 l 620 668 l 586 575 l 353 575 l 353 493 l 557 493 l 524 400 l 353 399 q 358 275 354 319 q 369 212 362 231 q 395 176 378 188 q 437 165 411 165 q 475 176 460 165 q 500 212 491 188 q 509 251 506 227 q 515 325 512 274 l 747 325 "},"∂":{"x_min":25,"x_max":745,"ha":772,"o":"m 522 485 q 546 627 539 571 q 553 729 553 684 q 535 837 553 800 q 482 874 517 874 q 443 859 460 874 q 408 811 426 845 q 346 730 378 757 q 277 704 313 704 q 207 729 235 704 q 180 794 180 755 q 249 894 180 853 q 419 936 319 936 q 658 825 571 936 q 745 520 745 715 q 631 134 745 284 q 337 -16 517 -16 q 108 62 191 -16 q 25 278 25 140 q 110 509 25 416 q 319 602 196 602 q 436 572 384 602 q 522 485 487 542 m 471 375 q 447 492 471 452 q 380 532 424 532 q 278 436 319 532 q 237 196 237 341 q 260 79 237 118 q 328 40 283 40 q 430 135 390 40 q 471 375 471 230 "},"p":{"x_min":79,"x_max":657,"ha":711,"o":"m 364 164 q 423 212 407 164 q 439 438 439 261 q 423 584 439 545 q 369 624 407 624 q 309 578 326 624 q 292 339 292 533 q 308 201 292 239 q 364 164 324 164 m 79 -264 l 79 785 l 280 785 l 280 696 q 356 775 311 748 q 456 803 401 803 q 541 786 503 803 q 604 740 579 770 q 645 642 633 704 q 657 412 657 581 q 612 61 657 144 q 452 -22 568 -22 q 365 0 403 -22 q 297 69 327 23 l 297 -264 l 79 -264 "},"‡":{"x_min":47,"x_max":647,"ha":694,"o":"m 244 -232 l 244 72 l 47 72 l 47 244 l 244 244 l 244 575 l 47 575 l 47 743 l 244 743 l 244 1044 l 449 1044 l 449 743 l 647 743 l 647 575 l 449 575 l 449 244 l 647 244 l 647 72 l 449 72 l 449 -232 l 244 -232 "},"√":{"x_min":57,"x_max":949,"ha":946,"o":"m 949 1178 l 949 1061 l 890 1061 l 491 -28 l 394 -28 l 190 532 l 84 492 l 57 597 l 324 691 l 466 284 l 794 1178 l 949 1178 "},"S":{"x_min":50,"x_max":682,"ha":729,"o":"m 52 354 l 277 354 l 277 323 q 297 202 277 237 q 365 167 317 167 q 426 193 404 167 q 449 266 449 220 q 339 412 449 342 q 312 430 322 424 l 301 438 q 117 587 153 537 q 78 672 92 625 q 65 776 65 719 q 144 991 65 913 q 362 1069 223 1069 q 593 992 513 1069 q 673 770 673 915 q 672 753 673 764 q 671 737 671 743 l 453 737 l 453 749 q 431 853 453 818 q 369 889 410 889 q 314 864 335 889 q 293 798 293 839 q 412 657 293 732 q 445 636 434 643 q 472 619 455 630 q 635 482 600 537 q 670 400 658 446 q 682 301 682 354 q 600 59 682 144 q 368 -25 519 -25 q 129 56 209 -25 q 50 297 50 137 q 50 318 50 307 q 52 354 50 329 "},"/":{"x_min":-49,"x_max":397,"ha":376,"o":"m 66 -129 l -49 -129 l 281 1069 l 397 1069 l 66 -129 "},"y":{"x_min":11,"x_max":599,"ha":610,"o":"m 11 785 l 228 785 l 304 279 l 381 785 l 599 785 l 443 64 q 342 -203 398 -143 q 165 -264 287 -264 q 125 -261 147 -264 q 75 -255 103 -259 l 75 -91 q 79 -91 76 -91 q 112 -94 102 -94 q 168 -80 150 -94 q 185 -37 185 -66 q 172 43 185 -18 q 165 76 167 65 l 11 785 "},"≈":{"x_min":121,"x_max":1038,"ha":1157,"o":"m 1038 208 q 905 140 966 162 q 785 119 844 119 q 595 162 726 119 q 380 206 464 206 q 263 180 325 206 q 121 98 202 155 l 121 302 q 265 375 199 352 q 399 398 331 398 q 608 354 479 398 q 790 311 736 311 q 905 334 846 311 q 1038 411 963 357 l 1038 208 m 1038 524 q 905 455 966 476 q 786 434 845 434 q 595 478 726 434 q 380 522 464 522 q 263 497 323 522 q 121 415 203 472 l 121 618 q 266 691 199 668 q 399 714 332 714 q 608 670 479 714 q 790 627 736 627 q 906 650 848 627 q 1038 728 965 674 l 1038 524 "},"g":{"x_min":53,"x_max":629,"ha":707,"o":"m 273 495 l 273 438 q 287 242 273 284 q 339 201 302 201 q 393 238 378 201 q 409 394 409 275 l 409 426 q 394 587 409 554 q 341 621 379 621 q 289 591 306 621 q 273 495 273 561 m 629 785 l 629 81 q 617 -77 629 -26 q 578 -165 605 -129 q 477 -239 540 -214 q 324 -264 414 -264 q 120 -207 187 -264 q 53 -35 53 -151 l 268 -35 q 284 -99 268 -79 q 334 -120 300 -120 q 392 -93 376 -120 q 409 11 409 -66 l 409 104 q 326 46 365 64 q 247 29 287 29 q 146 59 190 29 q 78 148 102 90 q 59 236 65 178 q 53 384 53 293 q 57 540 53 471 q 69 651 61 608 q 131 760 82 717 q 243 803 180 803 q 341 777 296 803 q 428 697 386 751 l 428 785 l 629 785 "},"²":{"x_min":32,"x_max":446,"ha":492,"o":"m 32 412 l 32 422 q 40 491 32 457 q 68 563 49 526 q 185 710 106 637 q 201 725 196 720 l 206 730 q 293 875 293 812 q 280 919 293 904 q 244 935 268 935 q 197 909 212 935 q 182 830 182 884 l 182 819 l 39 819 l 39 835 q 93 990 39 936 q 250 1044 148 1044 q 394 997 342 1044 q 446 869 446 951 q 423 777 446 820 q 352 688 401 733 q 317 656 341 677 q 215 536 236 583 l 443 536 l 443 412 l 32 412 "},"ë":{"x_min":54,"x_max":633,"ha":692,"o":"m 423 276 l 628 276 l 628 256 q 557 48 628 118 q 342 -21 485 -21 q 212 0 270 -21 q 121 55 154 19 q 69 165 85 97 q 54 384 54 234 q 69 616 54 550 q 124 725 85 682 q 219 785 161 765 q 352 806 276 806 q 485 783 429 806 q 577 718 542 761 q 620 631 607 681 q 633 457 633 580 l 633 363 l 276 363 q 275 354 275 359 q 272 285 272 304 q 290 170 272 202 q 350 138 307 138 q 407 162 388 138 q 426 237 426 187 q 424 269 426 248 q 423 276 423 273 m 281 499 l 429 499 q 429 503 429 500 q 431 544 431 532 q 413 629 431 602 q 354 657 394 657 q 297 630 314 657 q 280 542 280 603 q 280 515 280 525 q 281 499 280 506 m 392 875 l 392 1053 l 557 1053 l 557 875 l 392 875 m 152 875 l 152 1053 l 317 1053 l 317 875 l 152 875 "},"–":{"x_min":0,"x_max":694,"ha":694,"o":"m 0 313 l 0 471 l 694 471 l 694 313 l 0 313 "},"ƒ":{"x_min":17,"x_max":680,"ha":745,"o":"m 250 526 l 105 526 l 105 679 l 275 679 q 369 964 303 878 q 559 1051 436 1051 q 613 1046 583 1051 q 680 1033 644 1042 l 642 858 q 620 865 631 863 q 598 868 608 868 q 533 823 556 868 q 499 679 509 779 l 637 679 l 637 526 l 474 526 l 421 181 q 382 -21 399 43 q 343 -135 365 -87 q 259 -232 313 -197 q 137 -267 204 -267 q 81 -260 111 -267 q 17 -240 50 -254 l 41 -58 q 70 -71 57 -67 q 95 -76 84 -76 q 145 -47 128 -76 q 174 53 163 -19 l 250 526 "},"J":{"x_min":12,"x_max":587,"ha":675,"o":"m 14 351 l 239 351 q 250 191 239 220 q 294 162 262 162 q 332 180 321 162 q 343 259 343 199 l 343 1044 l 587 1044 l 587 356 q 578 183 587 239 q 551 90 570 126 q 458 4 519 33 q 308 -25 397 -25 q 80 49 148 -25 q 12 298 12 124 q 12 330 12 319 q 14 351 12 341 "},"Ã":{"x_min":10,"x_max":753,"ha":764,"o":"m 311 389 l 452 389 l 382 844 l 311 389 m 10 0 l 237 1044 l 527 1044 l 753 0 l 508 0 l 478 200 l 286 200 l 256 0 l 10 0 m 232 1141 l 164 1140 q 214 1258 179 1219 q 303 1298 248 1298 q 327 1296 316 1298 q 350 1292 339 1295 l 437 1270 q 454 1267 446 1268 q 472 1266 463 1266 q 511 1279 495 1266 q 532 1317 526 1292 l 601 1317 q 549 1198 587 1240 q 456 1156 512 1156 q 435 1157 445 1156 q 415 1161 425 1158 l 322 1184 q 308 1187 316 1186 q 294 1189 301 1189 q 254 1176 269 1189 q 232 1141 238 1164 "},"©":{"x_min":69,"x_max":1088,"ha":1157,"o":"m 668 597 q 642 664 666 639 q 579 689 618 689 q 502 640 530 689 q 474 504 474 592 q 501 371 474 415 q 585 327 529 327 q 647 351 625 327 q 671 424 668 376 l 839 424 q 765 263 834 323 q 581 204 695 204 q 373 282 449 204 q 298 499 298 361 q 373 718 298 634 q 568 802 448 802 q 757 747 688 802 q 832 597 826 693 l 668 597 m 984 502 q 953 657 984 583 q 866 788 922 731 q 734 877 807 847 q 578 908 661 908 q 422 878 495 908 q 293 791 349 849 q 204 657 235 732 q 173 502 173 583 q 203 348 173 421 q 292 217 234 274 q 423 127 350 158 q 578 97 497 97 q 733 128 659 97 q 867 218 807 159 q 954 346 925 274 q 984 502 984 419 m 577 1012 q 775 974 682 1012 q 940 863 868 936 q 1049 698 1011 792 q 1088 502 1088 605 q 1050 306 1088 397 q 940 145 1012 215 q 771 32 865 72 q 577 -7 677 -7 q 384 31 476 -7 q 219 144 293 70 q 107 308 146 216 q 69 502 69 401 q 107 698 69 604 q 220 866 146 791 q 382 974 290 937 q 577 1012 473 1012 "},"˘":{"x_min":134,"x_max":561,"ha":694,"o":"m 134 1061 l 224 1061 q 260 997 231 1017 q 347 978 290 978 q 434 998 404 978 q 471 1060 464 1018 l 561 1061 q 499 914 550 960 q 347 868 447 868 q 196 915 248 868 q 134 1061 144 962 "},"≥":{"x_min":172,"x_max":986,"ha":1157,"o":"m 986 160 l 986 -24 l 172 -24 l 172 160 l 986 160 m 984 616 l 984 455 l 173 204 l 173 394 l 651 536 l 173 677 l 173 869 l 984 616 "},"D":{"x_min":85,"x_max":746,"ha":810,"o":"m 331 849 l 331 190 q 345 189 338 189 q 366 189 351 189 q 431 199 405 189 q 473 234 457 210 q 491 307 486 253 q 497 520 497 361 l 497 568 q 492 744 497 698 q 474 806 487 789 q 433 840 460 829 q 363 851 405 851 q 343 850 350 851 q 331 849 336 850 m 85 0 l 85 1044 l 354 1044 q 573 1018 502 1044 q 686 931 644 993 q 732 807 718 883 q 746 522 746 730 q 732 237 746 313 q 686 112 718 161 q 573 25 644 50 q 354 0 502 0 l 85 0 "},"ÿ":{"x_min":11,"x_max":599,"ha":610,"o":"m 11 785 l 228 785 l 304 279 l 381 785 l 599 785 l 443 64 q 342 -203 398 -143 q 165 -264 287 -264 q 125 -261 147 -264 q 75 -255 103 -259 l 75 -91 q 79 -91 76 -91 q 112 -94 102 -94 q 168 -80 150 -94 q 185 -37 185 -66 q 172 43 185 -18 q 165 76 167 65 l 11 785 m 344 875 l 344 1053 l 509 1053 l 509 875 l 344 875 m 104 875 l 104 1053 l 269 1053 l 269 875 l 104 875 "},"ł":{"x_min":0,"x_max":392,"ha":392,"o":"m 305 680 l 392 741 l 392 572 l 305 509 l 305 0 l 87 0 l 87 410 l 0 348 l 0 519 l 87 581 l 87 1044 l 305 1044 l 305 680 "},"Ł":{"x_min":0,"x_max":630,"ha":654,"o":"m 630 0 l 92 0 l 92 340 l 0 273 l 0 470 l 92 536 l 92 1044 l 337 1044 l 337 682 l 484 784 l 484 587 l 337 486 l 337 211 l 630 211 l 630 0 "},"$":{"x_min":45,"x_max":692,"ha":745,"o":"m 403 172 q 470 210 447 181 q 493 286 493 238 q 472 349 493 323 q 403 397 451 376 l 403 172 m 330 664 l 330 864 q 269 832 290 856 q 248 770 248 808 q 269 710 248 738 q 330 664 290 683 m 301 -126 l 301 8 q 110 101 175 19 q 45 329 45 183 l 45 334 l 235 334 q 234 321 235 329 q 234 310 234 313 q 256 214 234 248 q 325 171 278 181 l 325 428 q 127 556 194 475 q 61 747 61 637 q 124 936 61 862 q 301 1023 187 1009 l 301 1112 l 430 1112 l 430 1025 q 614 938 550 1011 q 680 736 677 865 l 494 736 q 469 832 489 801 q 409 863 448 863 l 407 863 l 407 629 q 626 495 561 571 q 692 298 692 419 q 625 97 692 170 q 430 8 559 23 l 430 -126 l 301 -126 "},"w":{"x_min":12,"x_max":909,"ha":916,"o":"m 164 0 l 12 785 l 225 785 l 286 238 l 370 785 l 553 785 l 635 238 l 697 785 l 909 785 l 757 0 l 529 0 l 459 432 l 392 0 l 164 0 "},"\\":{"x_min":-49,"x_max":397,"ha":376,"o":"m 281 -129 l -49 1069 l 66 1069 l 397 -129 l 281 -129 "},"∫":{"x_min":35,"x_max":871,"ha":903,"o":"m 257 -166 q 293 -137 276 -166 q 322 -60 311 -109 q 339 200 335 2 q 346 399 342 326 q 443 903 361 749 q 693 1057 525 1057 q 822 1017 773 1057 q 871 915 871 977 q 839 838 871 868 q 761 809 808 809 q 692 836 715 809 q 669 918 669 864 q 670 925 669 919 q 671 935 671 931 q 665 961 671 953 q 647 970 659 970 q 562 521 577 970 q 560 461 560 482 q 535 133 552 235 q 485 -47 518 31 q 372 -201 441 -149 q 211 -253 303 -253 q 83 -214 131 -253 q 35 -111 35 -175 q 65 -33 35 -62 q 147 -5 95 -5 q 212 -30 189 -5 q 236 -101 236 -56 q 235 -122 236 -110 q 234 -138 234 -134 q 240 -158 234 -151 q 257 -166 246 -166 "},"Ì":{"x_min":-18,"x_max":329,"ha":414,"o":"m 85 0 l 85 1044 l 329 1044 l 329 0 l 85 0 m 317 1132 l 219 1132 l -18 1325 l 182 1325 l 317 1132 "},"Ç":{"x_min":64,"x_max":754,"ha":828,"o":"m 513 404 l 753 404 q 753 383 753 394 q 754 351 754 372 q 670 67 754 160 q 413 -25 586 -25 q 239 8 312 -25 q 122 111 167 42 q 77 246 91 159 q 64 521 64 333 q 77 797 64 710 q 122 932 91 883 q 238 1034 166 1000 q 409 1069 310 1069 q 667 973 581 1069 q 753 688 753 878 l 753 678 l 516 678 q 491 828 514 785 q 414 872 468 872 q 333 819 355 872 q 312 541 312 766 l 312 521 q 333 225 312 280 q 414 171 355 171 q 491 210 469 171 q 513 357 513 250 l 513 404 m 240 -295 l 240 -206 q 330 -223 288 -217 q 397 -229 372 -229 q 439 -217 426 -229 q 453 -181 453 -206 q 434 -150 453 -160 q 376 -140 415 -140 q 364 -140 372 -140 q 351 -141 355 -141 l 351 0 l 428 0 l 428 -55 q 539 -88 499 -55 q 579 -182 579 -121 q 535 -285 579 -248 q 412 -322 491 -322 q 320 -315 365 -322 q 240 -295 275 -308 "},"C":{"x_min":64,"x_max":754,"ha":828,"o":"m 513 404 l 753 404 q 753 383 753 394 q 754 351 754 372 q 670 67 754 160 q 413 -25 586 -25 q 239 8 312 -25 q 122 111 167 42 q 77 246 91 159 q 64 521 64 333 q 77 797 64 710 q 122 932 91 883 q 238 1034 166 1000 q 409 1069 310 1069 q 667 973 581 1069 q 753 688 753 878 l 753 678 l 516 678 q 491 828 514 785 q 414 872 468 872 q 333 819 355 872 q 312 541 312 766 l 312 521 q 333 225 312 280 q 414 171 355 171 q 491 210 469 171 q 513 357 513 250 l 513 404 "},"!":{"x_min":108.921875,"x_max":352,"ha":460,"o":"m 170 345 l 108 768 l 108 1044 l 352 1044 l 352 768 l 296 345 l 170 345 m 113 0 l 113 239 l 352 239 l 352 0 l 113 0 "},"ç":{"x_min":53,"x_max":627,"ha":686,"o":"m 409 309 l 625 309 q 626 293 625 302 q 627 278 627 283 q 557 53 627 127 q 344 -21 487 -21 q 118 70 183 -21 q 53 392 53 161 q 118 714 53 622 q 344 806 184 806 q 556 732 488 806 q 624 502 624 658 l 624 489 l 412 489 l 412 511 q 396 612 412 582 q 345 642 381 642 q 289 601 304 642 q 275 392 275 561 q 289 184 275 228 q 344 140 304 140 q 395 171 379 140 q 411 272 411 203 q 410 289 411 277 q 409 309 409 302 m 172 -295 l 172 -206 q 262 -223 220 -217 q 329 -229 304 -229 q 371 -217 358 -229 q 385 -181 385 -206 q 366 -150 385 -160 q 308 -140 347 -140 q 296 -140 304 -140 q 283 -141 287 -141 l 283 0 l 360 0 l 360 -55 q 471 -88 431 -55 q 511 -182 511 -121 q 467 -285 511 -248 q 344 -322 423 -322 q 252 -315 297 -322 q 172 -295 207 -308 "},"È":{"x_min":85,"x_max":653,"ha":720,"o":"m 85 0 l 85 1044 l 653 1044 l 653 841 l 328 841 l 328 650 l 627 650 l 627 440 l 328 440 l 328 212 l 653 212 l 653 0 l 85 0 m 479 1132 l 381 1132 l 144 1325 l 344 1325 l 479 1132 "},"X":{"x_min":10,"x_max":738,"ha":737,"o":"m 10 0 l 233 513 l 25 1044 l 280 1044 l 377 734 l 472 1044 l 732 1044 l 518 513 l 738 0 l 475 0 l 377 301 l 271 0 l 10 0 "},"ô":{"x_min":53,"x_max":636,"ha":690,"o":"m 275 392 q 289 184 275 226 q 344 143 304 143 q 399 183 384 143 q 414 392 414 223 q 399 601 414 561 q 344 642 384 642 q 289 599 304 642 q 275 392 275 557 m 53 392 q 118 713 53 621 q 344 806 184 806 q 570 714 504 806 q 636 392 636 622 q 570 70 636 162 q 344 -21 504 -21 q 118 70 183 -21 q 53 392 53 161 m 133 868 l 267 1061 l 428 1061 l 563 868 l 466 868 l 348 969 l 229 868 l 133 868 "},"đ":{"x_min":60,"x_max":740,"ha":720,"o":"m 281 374 q 295 193 281 229 q 347 157 309 157 q 408 201 391 157 q 424 423 424 245 q 408 562 424 524 q 353 601 392 601 q 296 558 311 601 q 281 374 281 515 m 638 1044 l 638 967 l 740 967 l 740 845 l 638 845 l 638 0 l 436 0 l 436 86 q 360 6 406 34 q 260 -22 315 -22 q 164 0 206 -22 q 98 62 123 21 q 68 159 77 97 q 60 384 60 220 q 105 705 60 623 q 265 787 151 787 q 351 765 314 787 q 420 695 388 743 l 420 845 l 264 845 l 264 967 l 420 967 l 420 1044 l 638 1044 "},"}":{"x_min":82,"x_max":598,"ha":694,"o":"m 435 786 l 435 612 q 466 491 435 526 q 574 456 498 456 q 585 457 577 456 q 598 458 593 458 l 598 265 q 585 265 593 265 q 574 266 577 266 q 466 231 498 266 q 435 109 435 195 l 435 -64 q 418 -191 435 -153 q 359 -250 401 -229 q 281 -273 329 -266 q 145 -280 234 -280 l 82 -280 l 82 -87 q 97 -87 88 -87 q 111 -88 107 -88 q 190 -68 170 -88 q 211 18 211 -47 l 211 181 q 242 308 211 271 q 358 361 274 345 q 242 413 274 376 q 211 541 211 450 l 211 703 q 190 790 211 769 q 111 810 170 810 q 97 809 107 810 q 82 809 88 809 l 82 1002 l 136 1002 q 278 994 229 1002 q 359 971 327 987 q 418 912 401 950 q 435 786 435 874 "},"â":{"x_min":43,"x_max":682.8125,"ha":725,"o":"m 426 377 q 302 318 341 353 q 263 230 263 283 q 282 170 263 192 q 334 148 301 148 q 404 180 382 148 q 426 290 426 213 l 426 377 m 453 0 l 440 71 q 350 6 399 28 q 243 -16 301 -16 q 96 43 150 -16 q 43 205 43 103 q 88 352 43 294 q 239 451 134 409 q 307 476 264 461 q 430 577 430 521 q 412 630 430 612 q 361 648 394 648 q 302 624 321 648 q 283 550 283 600 l 283 545 l 63 545 q 136 742 63 677 q 361 807 210 807 q 482 794 429 807 q 571 758 535 781 q 636 683 617 727 q 655 522 655 639 l 655 498 l 655 219 q 661 78 655 127 q 682 0 667 30 l 453 0 m 165 868 l 299 1061 l 460 1061 l 595 868 l 498 868 l 380 969 l 261 868 l 165 868 "},"ø":{"x_min":-16,"x_max":703,"ha":690,"o":"m 703 803 l 603 658 q 632 543 623 608 q 641 384 641 478 q 571 70 641 165 q 343 -24 502 -24 q 247 -12 290 -24 q 168 24 205 0 l 82 -99 l -16 -38 l 92 119 q 61 244 71 177 q 52 398 52 311 q 120 712 52 616 q 343 808 189 808 q 443 795 398 808 q 527 756 487 782 l 605 869 l 703 803 m 422 424 l 278 200 q 300 147 282 166 q 348 129 319 129 q 407 176 389 129 q 425 341 425 223 q 424 391 425 374 q 422 424 424 408 m 271 345 l 417 567 q 393 634 411 612 q 346 657 375 657 q 287 609 304 657 q 269 433 269 561 q 270 391 269 421 q 271 345 271 362 "},"Ä":{"x_min":10,"x_max":753,"ha":764,"o":"m 311 389 l 452 389 l 382 844 l 311 389 m 10 0 l 237 1044 l 527 1044 l 753 0 l 508 0 l 478 200 l 286 200 l 256 0 l 10 0 m 420 1139 l 420 1317 l 585 1317 l 585 1139 l 420 1139 m 180 1139 l 180 1317 l 345 1317 l 345 1139 l 180 1139 "},"‰":{"x_min":54,"x_max":1607,"ha":1668,"o":"m 1318 252 q 1331 141 1318 172 q 1380 111 1345 111 q 1428 141 1414 111 q 1443 252 1443 172 q 1428 363 1443 332 q 1380 395 1414 395 q 1331 363 1345 395 q 1318 252 1318 332 m 1154 252 q 1206 463 1154 400 q 1380 526 1258 526 q 1554 463 1501 526 q 1607 252 1607 400 q 1554 42 1607 104 q 1380 -20 1502 -20 q 1206 42 1258 -20 q 1154 252 1154 104 m 804 252 q 817 141 804 172 q 865 111 831 111 q 914 142 900 111 q 929 252 929 173 q 914 362 929 330 q 865 395 900 395 q 817 363 831 395 q 804 252 804 332 m 640 252 q 692 463 640 400 q 866 526 745 526 q 1040 463 987 526 q 1093 252 1093 400 q 1040 42 1093 104 q 866 -20 988 -20 q 692 42 744 -20 q 640 252 640 104 m 256 -20 l 757 1051 l 889 1051 l 389 -20 l 256 -20 m 218 778 q 231 667 218 698 q 280 636 245 636 q 328 667 314 636 q 343 778 343 698 q 328 888 343 857 q 280 920 314 920 q 231 888 245 920 q 218 778 218 857 m 54 779 q 106 988 54 926 q 280 1051 158 1051 q 454 988 402 1051 q 507 779 507 926 q 454 568 507 631 q 280 505 401 505 q 106 568 158 505 q 54 779 54 631 "},"N":{"x_min":85,"x_max":736,"ha":822,"o":"m 85 0 l 85 1044 l 339 1044 l 541 399 q 523 680 529 562 q 518 879 518 798 l 518 1044 l 736 1044 l 736 0 l 480 0 l 277 663 q 297 412 290 534 q 305 176 305 290 l 305 0 l 85 0 "},"—":{"x_min":0,"x_max":1389,"ha":1389,"o":"m 0 313 l 0 471 l 1389 471 l 1389 313 l 0 313 "},"2":{"x_min":48,"x_max":674,"ha":745,"o":"m 48 0 l 48 16 q 61 134 48 76 q 102 251 74 192 q 279 496 158 374 q 305 522 296 514 l 311 529 q 443 773 443 668 q 424 847 443 821 q 370 873 405 873 q 297 830 320 873 q 275 696 275 788 l 275 678 l 58 678 l 58 705 q 140 963 58 874 q 377 1053 222 1053 q 595 975 516 1053 q 674 761 674 898 q 640 607 674 680 q 533 459 606 534 q 486 412 518 443 q 325 205 358 287 l 671 205 l 671 0 l 48 0 "},"ü":{"x_min":69,"x_max":640,"ha":718,"o":"m 640 785 l 640 0 l 434 0 l 434 92 q 352 10 397 36 q 245 -16 306 -16 q 111 45 154 -16 q 69 237 69 106 l 69 785 l 289 785 l 289 299 q 301 182 289 205 q 344 160 313 160 q 401 195 380 160 q 422 294 422 230 l 422 785 l 640 785 m 396 875 l 396 1053 l 561 1053 l 561 875 l 396 875 m 156 875 l 156 1053 l 321 1053 l 321 875 l 156 875 "},"":{"x_min":22,"x_max":698,"ha":772,"o":"m 111 0 l 111 618 l 22 618 l 22 785 l 111 785 q 110 805 111 792 q 109 823 109 818 q 162 997 109 946 q 342 1048 214 1048 q 381 1047 361 1048 q 425 1044 402 1046 l 425 885 q 414 886 420 886 q 399 887 409 887 q 344 869 360 887 q 328 811 328 852 q 329 795 328 801 q 331 785 329 790 l 425 785 l 425 618 l 331 618 l 331 0 l 111 0 m 480 0 l 480 1044 l 698 1044 l 698 0 l 480 0 "},"Ó":{"x_min":64,"x_max":764,"ha":828,"o":"m 514 427 l 514 616 q 492 830 514 789 q 412 872 470 872 q 334 829 356 872 q 313 616 313 787 l 313 427 q 334 215 313 258 q 413 172 356 172 q 492 214 470 172 q 514 427 514 256 m 64 522 q 77 797 64 710 q 122 932 91 883 q 239 1035 167 1001 q 414 1069 312 1069 q 587 1035 516 1069 q 704 932 659 1001 q 750 796 736 883 q 764 522 764 709 q 750 247 764 334 q 704 111 736 160 q 587 8 660 42 q 414 -25 515 -25 q 239 8 312 -25 q 122 111 167 42 q 77 246 91 160 q 64 522 64 333 m 303 1132 l 437 1325 l 638 1325 l 400 1132 l 303 1132 "},"˜":{"x_min":129,"x_max":566,"ha":694,"o":"m 197 877 l 129 876 q 179 994 144 955 q 268 1034 213 1034 q 292 1032 281 1034 q 315 1028 304 1031 l 402 1006 q 419 1003 411 1004 q 437 1002 428 1002 q 476 1015 460 1002 q 497 1053 491 1028 l 566 1053 q 514 934 552 976 q 421 892 477 892 q 400 893 410 892 q 380 897 390 894 l 287 920 q 273 923 281 922 q 259 925 266 925 q 219 912 234 925 q 197 877 203 900 "},"ˇ":{"x_min":132,"x_max":562,"ha":694,"o":"m 132 1061 l 228 1061 l 347 959 l 465 1061 l 562 1061 l 427 868 l 266 868 l 132 1061 "},"Ÿ":{"x_min":-9,"x_max":721,"ha":713,"o":"m 231 0 l 231 442 l -9 1044 l 253 1044 l 354 713 l 455 1044 l 721 1044 l 481 442 l 481 0 l 231 0 m 395 1139 l 395 1317 l 560 1317 l 560 1139 l 395 1139 m 155 1139 l 155 1317 l 320 1317 l 320 1139 l 155 1139 "},"€":{"x_min":-1,"x_max":747,"ha":745,"o":"m 747 325 l 747 322 q 670 66 734 132 q 567 2 630 25 q 434 -21 504 -21 q 275 13 344 -21 q 165 111 206 47 q 120 387 127 175 q 119 400 119 395 l -1 400 l 31 493 l 118 493 l 118 575 l 4 575 l 37 668 l 120 668 q 124 734 121 701 q 130 796 126 767 q 177 936 142 884 q 277 1019 212 987 q 352 1043 312 1035 q 434 1051 391 1051 q 576 1024 511 1051 q 680 951 641 998 q 722 873 707 917 q 744 755 737 829 l 512 755 q 488 843 506 819 q 435 867 470 867 q 395 854 412 867 q 371 819 379 842 q 359 764 363 801 q 355 668 355 726 l 620 668 l 586 575 l 353 575 l 353 493 l 557 493 l 524 400 l 353 399 q 358 275 354 319 q 369 212 362 231 q 395 176 378 188 q 437 165 411 165 q 475 176 460 165 q 500 212 491 188 q 509 251 506 227 q 515 325 512 274 l 747 325 "},"ß":{"x_min":74,"x_max":643,"ha":700,"o":"m 74 0 l 74 683 q 81 832 74 782 q 108 918 89 881 q 200 1015 141 983 q 347 1047 259 1047 q 550 977 476 1047 q 624 786 624 908 q 600 678 624 726 q 531 596 577 631 q 617 499 591 563 q 643 315 643 435 q 593 64 643 144 q 439 -16 544 -16 q 395 -12 418 -15 q 348 -2 372 -9 l 348 155 l 354 155 q 413 185 397 155 q 429 340 429 216 l 429 380 q 413 481 429 452 q 358 510 397 510 l 348 510 l 348 667 q 396 688 383 667 q 410 800 410 710 q 395 866 410 843 q 352 890 380 890 q 303 862 316 890 q 290 729 290 834 l 290 700 l 290 0 l 74 0 "},"s":{"x_min":27,"x_max":581,"ha":610,"o":"m 27 249 l 223 248 q 246 159 226 187 q 307 131 266 131 q 361 150 340 131 q 382 200 382 169 q 367 243 382 226 q 302 284 352 261 q 268 301 291 290 q 103 404 150 356 q 52 480 70 436 q 35 571 35 523 q 107 742 35 678 q 305 806 180 806 q 503 744 433 806 q 573 568 573 683 l 573 554 l 381 554 q 362 638 379 613 q 308 664 346 664 q 255 646 275 664 q 236 598 236 628 q 334 503 236 547 q 355 494 348 497 q 535 377 490 434 q 581 227 581 320 q 507 44 581 109 q 298 -21 434 -21 q 98 44 170 -21 q 27 229 27 110 l 27 249 "},"?":{"x_min":37,"x_max":648,"ha":685,"o":"m 446 237 l 446 0 l 209 0 l 209 237 l 446 237 m 251 729 l 37 729 l 37 735 q 119 967 37 887 q 355 1048 201 1048 q 569 980 490 1048 q 648 798 648 913 q 620 675 648 737 q 518 519 593 614 q 510 508 516 516 q 432 340 432 406 l 432 329 l 225 329 q 222 353 223 341 q 221 377 221 365 q 242 483 221 432 q 333 621 264 534 l 337 625 q 411 778 411 715 q 390 848 411 823 q 333 873 370 873 q 272 840 294 873 q 250 752 250 808 q 250 740 250 748 q 251 729 251 733 "},"c":{"x_min":53,"x_max":627,"ha":686,"o":"m 409 309 l 625 309 q 626 293 625 302 q 627 278 627 283 q 557 53 627 127 q 344 -21 487 -21 q 118 70 183 -21 q 53 392 53 161 q 118 714 53 622 q 344 806 184 806 q 556 732 488 806 q 624 502 624 658 l 624 489 l 412 489 l 412 511 q 396 612 412 582 q 345 642 381 642 q 289 601 304 642 q 275 392 275 561 q 289 184 275 228 q 344 140 304 140 q 395 171 379 140 q 411 272 411 203 q 410 289 411 277 q 409 309 409 302 "},"¶":{"x_min":7,"x_max":689,"ha":694,"o":"m 689 907 l 620 907 l 620 0 l 482 0 l 482 907 l 387 907 l 387 0 l 249 0 l 249 532 q 73 601 139 537 q 7 766 7 666 q 78 937 7 872 q 269 1003 150 1003 l 689 1003 l 689 907 "},"•":{"x_min":208,"x_max":609,"ha":819,"o":"m 208 516 q 266 657 208 599 q 409 716 325 716 q 550 657 491 716 q 609 516 609 598 q 549 374 609 433 q 407 315 490 315 q 266 373 324 315 q 208 516 208 432 "},"(":{"x_min":106,"x_max":434,"ha":467,"o":"m 425 -264 l 255 -264 q 142 65 179 -95 q 106 389 106 226 q 145 726 106 565 q 264 1046 184 888 l 434 1046 q 343 726 373 888 q 313 398 313 565 q 341 71 313 237 q 425 -264 369 -94 "},"◊":{"x_min":4,"x_max":682,"ha":686,"o":"m 343 955 l 81 398 l 343 -158 l 604 398 l 343 955 m 343 1121 l 682 398 l 343 -324 l 4 398 l 343 1121 "},"­":{"x_min":58,"x_max":482,"ha":541,"o":"m 58 288 l 58 498 l 482 498 l 482 288 l 58 288 "},":":{"x_min":82,"x_max":322,"ha":406,"o":"m 82 535 l 82 774 l 322 774 l 322 535 l 82 535 m 82 0 l 82 239 l 322 239 l 322 0 l 82 0 "},"Û":{"x_min":85,"x_max":744,"ha":828,"o":"m 85 1044 l 332 1044 l 332 389 q 350 206 332 241 q 417 171 369 171 q 483 207 465 171 q 502 389 502 244 l 502 1044 l 744 1044 l 744 377 q 734 208 744 264 q 701 111 724 152 q 594 7 664 40 q 410 -25 523 -25 q 239 5 305 -25 q 135 104 173 36 q 96 227 107 152 q 85 482 85 303 l 85 1044 m 201 1132 l 335 1325 l 496 1325 l 631 1132 l 534 1132 l 416 1233 l 297 1132 l 201 1132 "},"V":{"x_min":11,"x_max":766,"ha":778,"o":"m 244 0 l 11 1044 l 269 1044 l 359 495 q 373 398 365 458 q 388 269 381 338 l 390 282 q 416 494 408 445 l 508 1044 l 766 1044 l 529 0 l 244 0 "}," ":{"x_min":0,"x_max":0,"ha":745},"@":{"x_min":47,"x_max":1341,"ha":1389,"o":"m 841 617 l 874 673 l 1038 673 l 932 248 q 930 235 931 240 q 929 227 929 231 q 938 203 929 211 q 961 194 946 194 q 1118 290 1048 194 q 1188 515 1188 387 q 1069 773 1188 675 q 756 872 951 872 q 575 847 659 872 q 423 776 491 823 q 261 593 318 703 q 205 356 205 484 q 340 38 205 156 q 703 -80 475 -80 q 911 -48 811 -80 q 1100 47 1011 -16 l 1178 -61 q 946 -184 1067 -144 q 688 -224 825 -224 q 447 -187 560 -224 q 248 -80 334 -150 q 97 108 147 0 q 47 352 47 216 q 84 577 47 471 q 195 770 122 684 q 440 954 296 890 q 753 1019 584 1019 q 1178 879 1015 1019 q 1341 517 1341 739 q 1294 304 1341 401 q 1161 140 1248 207 q 1057 83 1114 102 q 939 63 1001 63 q 826 89 865 63 q 781 167 787 115 q 694 89 741 113 q 585 65 648 65 q 410 124 469 65 q 352 302 352 184 q 449 581 352 469 q 691 693 546 693 q 779 673 741 693 q 841 617 818 654 m 763 334 l 795 466 q 766 537 790 512 q 704 563 742 563 q 591 484 640 563 q 543 298 543 405 q 563 222 543 249 q 622 196 584 196 q 709 233 671 196 q 763 334 748 271 "},"¾":{"x_min":36,"x_max":1143,"ha":1169,"o":"m 962 213 l 962 447 l 841 213 l 962 213 m 946 0 l 946 113 l 729 113 l 729 224 l 935 578 l 1086 578 l 1086 213 l 1143 213 l 1143 113 l 1086 113 l 1086 0 l 946 0 m 352 -21 l 237 -21 l 816 1051 l 931 1051 l 352 -21 m 37 646 l 175 646 q 188 567 176 591 q 228 544 200 544 q 267 565 253 544 q 281 628 281 587 q 256 691 281 671 q 176 711 232 711 q 163 710 167 711 q 156 709 159 710 l 155 801 l 169 801 q 246 820 222 801 q 270 883 270 840 q 258 927 270 911 q 227 944 247 944 q 191 925 201 944 q 179 859 180 907 l 45 859 l 45 865 q 95 995 45 948 q 234 1042 145 1042 q 367 1000 316 1042 q 419 893 419 959 q 395 817 419 849 q 324 761 372 784 q 408 708 381 742 q 435 620 435 673 q 382 488 435 535 q 233 442 329 442 q 87 491 139 442 q 36 629 36 540 q 36 638 36 632 q 37 646 37 644 "},"i":{"x_min":74,"x_max":292,"ha":367,"o":"m 74 863 l 74 1053 l 292 1053 l 292 863 l 74 863 m 74 0 l 74 785 l 292 785 l 292 0 l 74 0 "},"≤":{"x_min":172,"x_max":986,"ha":1157,"o":"m 986 160 l 986 -24 l 172 -24 l 172 160 l 986 160 m 984 677 l 507 536 l 984 394 l 984 204 l 172 455 l 172 616 l 984 869 l 984 677 "},"m":{"x_min":74,"x_max":951,"ha":1017,"o":"m 74 0 l 74 785 l 268 785 l 268 691 q 346 773 303 747 q 448 800 389 800 q 540 772 502 800 q 600 691 579 744 q 680 773 636 747 q 782 800 725 800 q 910 739 870 800 q 951 547 951 679 l 951 0 l 741 0 l 741 496 q 729 602 741 580 q 688 625 717 625 q 632 589 652 625 q 613 490 613 553 l 613 0 l 408 0 l 408 496 q 396 602 408 580 q 355 625 385 625 q 300 589 320 625 q 281 490 281 553 l 281 0 l 74 0 "},"ž":{"x_min":25,"x_max":526,"ha":551,"o":"m 25 0 l 25 155 l 291 605 l 43 605 l 43 785 l 526 785 l 526 619 l 262 176 l 526 176 l 526 0 l 25 0 m 61 1061 l 157 1061 l 276 959 l 394 1061 l 491 1061 l 356 868 l 195 868 l 61 1061 "},"á":{"x_min":43,"x_max":682.8125,"ha":725,"o":"m 426 377 q 302 318 341 353 q 263 230 263 283 q 282 170 263 192 q 334 148 301 148 q 404 180 382 148 q 426 290 426 213 l 426 377 m 453 0 l 440 71 q 350 6 399 28 q 243 -16 301 -16 q 96 43 150 -16 q 43 205 43 103 q 88 352 43 294 q 239 451 134 409 q 307 476 264 461 q 430 577 430 521 q 412 630 430 612 q 361 648 394 648 q 302 624 321 648 q 283 550 283 600 l 283 545 l 63 545 q 136 742 63 677 q 361 807 210 807 q 482 794 429 807 q 571 758 535 781 q 636 683 617 727 q 655 522 655 639 l 655 498 l 655 219 q 661 78 655 127 q 682 0 667 30 l 453 0 m 270 868 l 404 1061 l 605 1061 l 367 868 l 270 868 "},"×":{"x_min":172,"x_max":1014,"ha":1157,"o":"m 592 546 l 881 835 l 1014 702 l 724 413 l 1014 124 l 881 -7 l 592 282 l 304 -7 l 172 124 l 461 413 l 172 702 l 304 835 l 592 546 "},"İ":{"x_min":85,"x_max":329,"ha":414,"o":"m 85 0 l 85 1044 l 329 1044 l 329 0 l 85 0 m 122 1136 l 122 1320 l 292 1320 l 292 1136 l 122 1136 "},"K":{"x_min":85,"x_max":767,"ha":750,"o":"m 85 0 l 85 1044 l 329 1044 l 329 610 l 511 1044 l 761 1044 l 534 587 l 767 0 l 510 0 l 381 377 l 329 277 l 329 0 l 85 0 "},"7":{"x_min":62,"x_max":673,"ha":745,"o":"m 184 0 q 269 391 202 183 q 449 827 335 599 l 62 827 l 62 1032 l 673 1032 l 673 854 q 513 465 576 683 q 424 0 449 247 l 184 0 "},"¨":{"x_min":145,"x_max":550,"ha":694,"o":"m 385 875 l 385 1053 l 550 1053 l 550 875 l 385 875 m 145 875 l 145 1053 l 310 1053 l 310 875 l 145 875 "},"Y":{"x_min":-9,"x_max":721,"ha":713,"o":"m 231 0 l 231 442 l -9 1044 l 253 1044 l 354 713 l 455 1044 l 721 1044 l 481 442 l 481 0 l 231 0 "},"E":{"x_min":85,"x_max":653,"ha":720,"o":"m 85 0 l 85 1044 l 653 1044 l 653 841 l 328 841 l 328 650 l 627 650 l 627 440 l 328 440 l 328 212 l 653 212 l 653 0 l 85 0 "},"Ô":{"x_min":64,"x_max":764,"ha":828,"o":"m 514 427 l 514 616 q 492 830 514 789 q 412 872 470 872 q 334 829 356 872 q 313 616 313 787 l 313 427 q 334 215 313 258 q 413 172 356 172 q 492 214 470 172 q 514 427 514 256 m 64 522 q 77 797 64 710 q 122 932 91 883 q 239 1035 167 1001 q 414 1069 312 1069 q 587 1035 516 1069 q 704 932 659 1001 q 750 796 736 883 q 764 522 764 709 q 750 247 764 334 q 704 111 736 160 q 587 8 660 42 q 414 -25 515 -25 q 239 8 312 -25 q 122 111 167 42 q 77 246 91 160 q 64 522 64 333 m 198 1132 l 332 1325 l 493 1325 l 628 1132 l 531 1132 l 413 1233 l 294 1132 l 198 1132 "},"Ï":{"x_min":5,"x_max":410,"ha":414,"o":"m 85 0 l 85 1044 l 329 1044 l 329 0 l 85 0 m 245 1139 l 245 1317 l 410 1317 l 410 1139 l 245 1139 m 5 1139 l 5 1317 l 170 1317 l 170 1139 l 5 1139 "},"‹":{"x_min":77,"x_max":330,"ha":411,"o":"m 330 479 l 193 394 l 330 302 l 330 129 l 77 294 l 77 494 l 330 656 l 330 479 "},"±":{"x_min":173,"x_max":985,"ha":1157,"o":"m 985 156 l 985 -28 l 173 -28 l 173 156 l 985 156 m 674 855 l 674 645 l 985 645 l 985 461 l 674 461 l 674 251 l 484 251 l 484 461 l 173 461 l 173 645 l 484 645 l 484 855 l 674 855 "},"ì":{"x_min":-42,"x_max":293,"ha":367,"o":"m 74 0 l 74 785 l 292 785 l 292 0 l 74 0 m 293 868 l 195 868 l -42 1061 l 158 1061 l 293 868 "},"|":{"x_min":253,"x_max":444,"ha":694,"o":"m 444 1061 l 444 -328 l 253 -328 l 253 1061 l 444 1061 "},"§":{"x_min":36,"x_max":659,"ha":694,"o":"m 425 288 q 455 325 445 306 q 466 359 466 343 q 372 473 466 399 l 365 479 l 262 560 q 231 530 241 546 q 221 497 221 514 q 238 452 221 478 q 287 401 256 426 l 425 288 m 58 26 l 254 26 q 275 -54 254 -24 q 335 -84 297 -84 q 387 -61 365 -84 q 409 -5 409 -38 q 298 127 409 41 l 296 129 l 178 220 q 67 337 99 282 q 36 462 36 391 q 62 578 36 523 q 141 683 88 633 q 99 756 113 719 q 86 830 86 792 q 163 1003 86 936 q 361 1071 240 1071 q 547 1006 478 1071 q 617 835 617 942 l 423 835 l 423 839 q 404 892 423 872 q 355 913 386 913 q 306 893 326 913 q 286 847 286 874 q 305 796 286 822 q 375 731 324 771 l 507 629 q 623 509 587 566 q 659 389 659 452 q 632 281 659 332 q 547 180 605 231 q 601 103 583 144 q 620 11 620 61 q 539 -169 620 -99 q 326 -239 458 -239 q 127 -170 196 -239 q 58 26 58 -102 "},"q":{"x_min":53,"x_max":632,"ha":713,"o":"m 345 164 q 400 201 384 164 q 416 339 416 239 q 399 578 416 533 q 340 624 383 624 q 289 589 303 624 q 275 448 275 554 l 275 408 q 289 205 275 246 q 345 164 304 164 m 632 -264 l 412 -264 l 412 69 q 344 0 382 22 q 258 -22 307 -22 q 97 62 142 -22 q 53 412 53 146 q 59 600 53 536 q 80 696 65 664 q 147 775 104 748 q 252 803 191 803 q 353 775 308 803 q 428 696 397 748 l 428 785 l 632 785 l 632 -264 "},"b":{"x_min":75,"x_max":654,"ha":713,"o":"m 360 616 q 305 578 321 616 q 289 441 289 540 q 306 202 289 247 q 366 157 323 157 q 417 191 403 157 q 432 349 432 226 l 432 370 q 417 576 432 536 q 360 616 402 616 m 75 1044 l 294 1044 l 294 712 q 361 780 323 758 q 448 803 399 803 q 609 719 564 803 q 654 369 654 635 q 647 181 654 246 q 626 85 640 116 q 558 5 601 32 q 454 -22 515 -22 q 353 5 398 -22 q 277 86 308 33 l 277 0 l 75 0 l 75 1044 "},"®":{"x_min":69,"x_max":1088,"ha":1157,"o":"m 558 682 l 532 682 l 532 551 l 568 551 q 627 567 607 551 q 648 617 648 584 q 626 666 648 650 q 558 682 604 682 m 584 790 q 764 748 702 790 q 826 627 826 707 q 796 536 826 574 q 715 479 767 497 l 835 239 l 646 239 l 548 450 l 532 450 l 532 239 l 358 239 l 358 790 l 584 790 m 984 502 q 953 657 984 583 q 866 788 922 731 q 734 877 807 847 q 578 908 661 908 q 422 878 495 908 q 293 791 349 849 q 204 657 235 732 q 173 502 173 583 q 203 348 173 421 q 292 217 234 274 q 423 127 350 158 q 578 97 497 97 q 733 128 659 97 q 867 218 807 159 q 954 346 925 274 q 984 502 984 419 m 577 1012 q 775 974 682 1012 q 940 863 868 936 q 1049 698 1011 792 q 1088 502 1088 605 q 1050 306 1088 397 q 940 145 1012 215 q 771 32 865 72 q 577 -7 677 -7 q 384 31 476 -7 q 219 144 293 70 q 107 308 146 216 q 69 502 69 401 q 107 698 69 604 q 220 866 146 791 q 382 974 290 937 q 577 1012 473 1012 "},"L":{"x_min":85,"x_max":623,"ha":646,"o":"m 623 0 l 85 0 l 85 1044 l 329 1044 l 329 211 l 623 211 l 623 0 "}," ":{"x_min":0,"x_max":0,"ha":372},"∑":{"x_min":40,"x_max":1040,"ha":1074,"o":"m 54 999 l 981 999 l 981 760 l 454 760 l 833 382 l 466 -25 l 1040 -25 l 1040 -266 l 40 -266 l 40 -130 l 490 369 l 54 796 l 54 999 "},"À":{"x_min":10,"x_max":753,"ha":764,"o":"m 311 389 l 452 389 l 382 844 l 311 389 m 10 0 l 237 1044 l 527 1044 l 753 0 l 508 0 l 478 200 l 286 200 l 256 0 l 10 0 m 492 1132 l 394 1132 l 157 1325 l 357 1325 l 492 1132 "},"+":{"x_min":173,"x_max":985,"ha":1157,"o":"m 674 828 l 674 507 l 985 507 l 985 322 l 674 322 l 674 0 l 484 0 l 484 322 l 173 322 l 173 507 l 484 507 l 484 828 l 674 828 "},"½":{"x_min":57,"x_max":1127,"ha":1169,"o":"m 732 0 l 732 9 q 740 75 732 43 q 766 140 749 108 q 880 279 803 211 q 895 292 890 288 l 897 294 q 983 431 983 372 q 970 474 983 459 q 935 489 958 489 q 889 465 903 489 q 875 389 875 442 l 875 379 l 737 379 l 737 394 q 789 538 737 488 q 938 589 841 589 q 1077 545 1027 589 q 1127 426 1127 502 q 1105 340 1127 381 q 1039 256 1084 299 q 1007 229 1028 247 q 906 115 926 160 l 1125 115 l 1125 0 l 732 0 m 352 -21 l 237 -21 l 816 1051 l 931 1051 l 352 -21 m 187 453 l 187 858 l 57 858 l 57 947 l 63 947 q 177 970 134 947 q 232 1042 219 994 l 335 1042 l 335 453 l 187 453 "},"Ë":{"x_min":85,"x_max":653,"ha":720,"o":"m 85 0 l 85 1044 l 653 1044 l 653 841 l 328 841 l 328 650 l 627 650 l 627 440 l 328 440 l 328 212 l 653 212 l 653 0 l 85 0 m 407 1139 l 407 1317 l 572 1317 l 572 1139 l 407 1139 m 167 1139 l 167 1317 l 332 1317 l 332 1139 l 167 1139 "},"'":{"x_min":46,"x_max":221,"ha":267,"o":"m 221 977 l 221 595 l 46 595 l 46 977 l 221 977 "},"Š":{"x_min":50,"x_max":682,"ha":729,"o":"m 52 354 l 277 354 l 277 323 q 297 202 277 237 q 365 167 317 167 q 426 193 404 167 q 449 266 449 220 q 339 412 449 342 q 312 430 322 424 l 301 438 q 117 587 153 537 q 78 672 92 625 q 65 776 65 719 q 144 991 65 913 q 362 1069 223 1069 q 593 992 513 1069 q 673 770 673 915 q 672 753 673 764 q 671 737 671 743 l 453 737 l 453 749 q 431 853 453 818 q 369 889 410 889 q 314 864 335 889 q 293 798 293 839 q 412 657 293 732 q 445 636 434 643 q 472 619 455 630 q 635 482 600 537 q 670 400 658 446 q 682 301 682 354 q 600 59 682 144 q 368 -25 519 -25 q 129 56 209 -25 q 50 297 50 137 q 50 318 50 307 q 52 354 50 329 m 150 1325 l 246 1325 l 365 1223 l 483 1325 l 580 1325 l 445 1132 l 284 1132 l 150 1325 "},"˛":{"x_min":227,"x_max":460,"ha":694,"o":"m 428 0 q 368 -68 387 -36 q 349 -132 349 -100 q 361 -172 349 -159 q 399 -186 373 -186 l 460 -186 l 460 -313 l 418 -313 q 270 -282 313 -313 q 227 -181 227 -251 q 258 -87 227 -132 q 355 0 290 -42 l 428 0 "},"ð":{"x_min":53,"x_max":636,"ha":690,"o":"m 344 613 q 289 573 304 613 q 275 378 275 534 q 289 182 275 222 q 344 143 304 143 q 399 182 384 143 q 414 378 414 222 q 399 573 414 534 q 344 613 384 613 m 362 754 q 329 810 347 782 q 288 863 310 838 l 143 780 l 109 836 l 247 915 q 224 942 237 928 q 184 984 212 957 l 288 1080 q 339 1043 313 1063 q 392 998 365 1022 l 511 1069 l 545 1013 l 437 949 q 589 700 543 834 q 636 368 636 566 q 569 65 636 152 q 344 -21 503 -21 q 119 63 186 -21 q 53 352 53 148 q 109 670 53 583 q 312 757 166 757 q 354 754 324 757 q 362 754 359 754 "},"ş":{"x_min":27,"x_max":581,"ha":610,"o":"m 27 249 l 223 248 q 246 159 226 187 q 307 131 266 131 q 361 150 340 131 q 382 200 382 169 q 367 243 382 226 q 302 284 352 261 q 268 301 291 290 q 103 404 150 356 q 52 480 70 436 q 35 571 35 523 q 107 742 35 678 q 305 806 180 806 q 503 744 433 806 q 573 568 573 683 l 573 554 l 381 554 q 362 638 379 613 q 308 664 346 664 q 255 646 275 664 q 236 598 236 628 q 334 503 236 547 q 355 494 348 497 q 535 377 490 434 q 581 227 581 320 q 507 44 581 109 q 298 -21 434 -21 q 98 44 170 -21 q 27 229 27 110 l 27 249 m 142 -295 l 142 -206 q 232 -223 190 -217 q 299 -229 274 -229 q 341 -217 328 -229 q 355 -181 355 -206 q 336 -150 355 -160 q 278 -140 317 -140 q 266 -140 274 -140 q 253 -141 257 -141 l 253 0 l 330 0 l 330 -55 q 441 -88 401 -55 q 481 -182 481 -121 q 437 -285 481 -248 q 314 -322 393 -322 q 222 -315 267 -322 q 142 -295 177 -308 "},"ı":{"x_min":74,"x_max":292,"ha":367,"o":"m 74 0 l 74 785 l 292 785 l 292 0 l 74 0 "},"Ć":{"x_min":64,"x_max":754,"ha":828,"o":"m 513 404 l 753 404 q 753 383 753 394 q 754 351 754 372 q 670 67 754 160 q 413 -25 586 -25 q 239 8 312 -25 q 122 111 167 42 q 77 246 91 159 q 64 521 64 333 q 77 797 64 710 q 122 932 91 883 q 238 1034 166 1000 q 409 1069 310 1069 q 667 973 581 1069 q 753 688 753 878 l 753 678 l 516 678 q 491 828 514 785 q 414 872 468 872 q 333 819 355 872 q 312 541 312 766 l 312 521 q 333 225 312 280 q 414 171 355 171 q 491 210 469 171 q 513 357 513 250 l 513 404 m 303 1132 l 437 1325 l 638 1325 l 400 1132 l 303 1132 "},"ä":{"x_min":43,"x_max":682.8125,"ha":725,"o":"m 426 377 q 302 318 341 353 q 263 230 263 283 q 282 170 263 192 q 334 148 301 148 q 404 180 382 148 q 426 290 426 213 l 426 377 m 453 0 l 440 71 q 350 6 399 28 q 243 -16 301 -16 q 96 43 150 -16 q 43 205 43 103 q 88 352 43 294 q 239 451 134 409 q 307 476 264 461 q 430 577 430 521 q 412 630 430 612 q 361 648 394 648 q 302 624 321 648 q 283 550 283 600 l 283 545 l 63 545 q 136 742 63 677 q 361 807 210 807 q 482 794 429 807 q 571 758 535 781 q 636 683 617 727 q 655 522 655 639 l 655 498 l 655 219 q 661 78 655 127 q 682 0 667 30 l 453 0 m 418 875 l 418 1053 l 583 1053 l 583 875 l 418 875 m 178 875 l 178 1053 l 343 1053 l 343 875 l 178 875 "},"¹":{"x_min":58,"x_max":350,"ha":492,"o":"m 196 412 l 196 844 l 58 844 l 58 940 l 66 940 q 185 965 140 940 q 244 1043 229 991 l 350 1043 l 350 412 l 196 412 "},"£":{"x_min":57,"x_max":701,"ha":745,"o":"m 182 427 l 57 427 l 57 548 l 139 548 q 93 673 108 619 q 79 766 79 726 q 163 971 79 895 q 391 1048 247 1048 q 611 970 534 1048 q 689 750 689 893 q 688 728 689 736 q 687 715 688 721 l 476 715 l 476 723 q 456 837 476 802 q 392 872 436 872 q 328 843 350 872 q 306 762 306 815 q 316 672 306 727 q 349 548 327 618 l 548 548 l 548 427 l 381 426 q 383 408 383 414 q 384 396 384 402 q 345 270 384 334 q 228 141 306 207 q 303 166 270 158 q 364 175 336 175 q 450 160 395 175 q 530 146 506 146 q 591 156 560 146 q 655 191 621 167 l 701 29 q 620 -12 661 1 q 536 -26 580 -26 q 402 -3 486 -26 q 283 20 318 20 q 209 9 249 20 q 123 -23 170 -1 l 57 126 q 158 243 125 184 q 191 364 191 301 q 188 395 191 380 q 182 427 186 411 "},"W":{"x_min":22,"x_max":1125,"ha":1124,"o":"m 230 0 l 22 1044 l 267 1044 l 322 536 q 337 396 332 452 q 346 296 343 340 q 357 421 351 361 q 373 537 364 482 l 450 1044 l 696 1044 l 772 538 q 789 397 776 507 q 801 295 796 332 q 813 443 808 389 q 822 532 818 496 l 878 1044 l 1125 1044 l 918 0 l 654 0 l 596 431 q 583 551 589 488 q 573 681 577 614 q 561 543 567 604 q 549 430 556 483 l 495 0 l 230 0 "},"Ğ":{"x_min":64,"x_max":727,"ha":800,"o":"m 727 572 l 727 0 l 558 0 l 547 65 q 466 2 511 23 q 365 -18 422 -18 q 248 5 302 -18 q 154 74 194 29 q 84 221 104 129 q 64 536 64 314 q 78 789 64 694 q 122 931 92 884 q 237 1034 165 999 q 407 1069 308 1069 q 639 985 561 1069 q 717 735 717 901 q 716 716 717 729 q 715 697 715 704 l 484 697 l 484 709 q 464 838 484 799 q 402 877 445 877 q 331 829 350 877 q 312 608 312 782 l 312 505 l 312 433 q 330 214 312 259 q 398 169 348 169 q 469 208 447 169 q 492 337 492 248 q 492 369 492 358 q 491 390 491 379 l 395 390 l 395 572 l 727 572 m 187 1325 l 277 1325 q 313 1261 284 1281 q 400 1242 343 1242 q 487 1262 457 1242 q 524 1324 517 1282 l 614 1325 q 552 1178 603 1224 q 400 1132 500 1132 q 249 1179 301 1132 q 187 1325 197 1226 "},"v":{"x_min":8,"x_max":598,"ha":608,"o":"m 180 0 l 8 785 l 227 785 l 304 251 l 380 785 l 598 785 l 425 0 l 180 0 "},">":{"x_min":179,"x_max":978,"ha":1157,"o":"m 978 509 l 978 319 l 179 -11 l 179 191 l 722 413 l 179 635 l 179 840 l 978 509 "},"û":{"x_min":69,"x_max":640,"ha":718,"o":"m 640 785 l 640 0 l 434 0 l 434 92 q 352 10 397 36 q 245 -16 306 -16 q 111 45 154 -16 q 69 237 69 106 l 69 785 l 289 785 l 289 299 q 301 182 289 205 q 344 160 313 160 q 401 195 380 160 q 422 294 422 230 l 422 785 l 640 785 m 143 868 l 277 1061 l 438 1061 l 573 868 l 476 868 l 358 969 l 239 868 l 143 868 "},"Ð":{"x_min":0,"x_max":766,"ha":832,"o":"m 375 1044 q 594 1018 522 1044 q 706 931 665 993 q 752 807 739 883 q 766 522 766 730 q 752 237 766 313 q 706 112 739 161 q 594 25 665 50 q 375 0 522 0 l 93 0 l 93 457 l 0 457 l 0 633 l 93 633 l 93 1044 l 375 1044 m 332 457 l 332 190 q 362 187 352 188 q 379 187 372 187 q 455 198 425 187 q 503 234 486 210 q 523 302 518 252 q 529 520 529 352 l 529 597 q 523 749 529 708 q 505 806 518 789 q 456 840 489 829 q 378 852 424 852 q 336 849 365 852 q 332 849 334 849 l 332 633 l 443 633 l 443 457 l 332 457 "},"r":{"x_min":69,"x_max":446,"ha":481,"o":"m 69 0 l 69 785 l 270 785 l 270 674 q 348 764 305 733 q 446 800 391 794 l 446 551 q 411 557 427 555 q 381 559 394 559 q 307 521 328 559 q 287 376 287 484 l 287 0 l 69 0 "},"Č":{"x_min":64,"x_max":754,"ha":828,"o":"m 513 404 l 753 404 q 753 383 753 394 q 754 351 754 372 q 670 67 754 160 q 413 -25 586 -25 q 239 8 312 -25 q 122 111 167 42 q 77 246 91 159 q 64 521 64 333 q 77 797 64 710 q 122 932 91 883 q 238 1034 166 1000 q 409 1069 310 1069 q 667 973 581 1069 q 753 688 753 878 l 753 678 l 516 678 q 491 828 514 785 q 414 872 468 872 q 333 819 355 872 q 312 541 312 766 l 312 521 q 333 225 312 280 q 414 171 355 171 q 491 210 469 171 q 513 357 513 250 l 513 404 m 198 1325 l 294 1325 l 413 1223 l 531 1325 l 628 1325 l 493 1132 l 332 1132 l 198 1325 "},"x":{"x_min":7,"x_max":590,"ha":593,"o":"m 7 0 l 184 392 l 17 785 l 232 785 l 298 571 l 365 785 l 581 785 l 413 394 l 590 0 l 368 0 l 298 221 l 229 0 l 7 0 "},"è":{"x_min":54,"x_max":633,"ha":692,"o":"m 423 276 l 628 276 l 628 256 q 557 48 628 118 q 342 -21 485 -21 q 212 0 270 -21 q 121 55 154 19 q 69 165 85 97 q 54 384 54 234 q 69 616 54 550 q 124 725 85 682 q 219 785 161 765 q 352 806 276 806 q 485 783 429 806 q 577 718 542 761 q 620 631 607 681 q 633 457 633 580 l 633 363 l 276 363 q 275 354 275 359 q 272 285 272 304 q 290 170 272 202 q 350 138 307 138 q 407 162 388 138 q 426 237 426 187 q 424 269 426 248 q 423 276 423 273 m 281 499 l 429 499 q 429 503 429 500 q 431 544 431 532 q 413 629 431 602 q 354 657 394 657 q 297 630 314 657 q 280 542 280 603 q 280 515 280 525 q 281 499 280 506 m 464 868 l 366 868 l 129 1061 l 329 1061 l 464 868 "},"Ø":{"x_min":12.25,"x_max":814.1875,"ha":828,"o":"m 309 413 l 512 764 q 486 852 512 821 q 413 883 461 883 q 331 833 354 883 q 309 598 309 783 l 309 522 l 309 413 m 518 595 l 318 247 q 350 185 324 208 q 413 162 375 162 q 495 213 473 162 q 518 479 518 264 l 518 497 l 518 595 m 213 22 l 136 -113 l 12 -48 l 114 128 q 75 266 87 190 q 64 483 64 343 q 77 796 64 709 q 122 933 90 884 q 241 1036 166 1001 q 415 1072 316 1072 q 522 1057 471 1072 q 624 1013 574 1042 l 691 1128 l 814 1062 l 719 903 q 753 772 743 843 q 764 572 764 701 q 750 250 764 339 q 704 111 737 160 q 587 8 660 43 q 414 -26 513 -26 q 311 -13 361 -26 q 213 22 262 -1 "},"÷":{"x_min":172,"x_max":983,"ha":1157,"o":"m 578 251 q 664 214 628 251 q 701 127 701 177 q 664 40 701 77 q 576 4 628 4 q 489 39 525 4 q 454 127 454 75 q 490 215 454 179 q 578 251 526 251 m 983 507 l 983 322 l 172 322 l 172 507 l 983 507 m 578 825 q 664 787 628 825 q 701 700 701 750 q 664 614 701 650 q 576 578 628 578 q 489 613 525 578 q 454 700 454 649 q 490 788 454 752 q 578 825 526 825 "},"h":{"x_min":69,"x_max":639,"ha":701,"o":"m 69 0 l 69 1044 l 287 1044 l 287 700 q 358 775 314 750 q 463 800 402 800 q 596 739 554 800 q 639 547 639 678 l 639 0 l 421 0 l 421 484 q 408 601 421 578 q 365 625 396 625 q 307 589 328 625 q 287 490 287 553 l 287 0 l 69 0 "},".":{"x_min":66,"x_max":307,"ha":374,"o":"m 66 0 l 66 239 l 307 239 l 307 0 l 66 0 "},"f":{"x_min":22,"x_max":425.6875,"ha":456,"o":"m 111 0 l 111 618 l 22 618 l 22 785 l 111 785 q 110 805 111 792 q 109 823 109 818 q 162 997 109 946 q 342 1048 214 1048 q 381 1046 361 1048 q 425 1043 402 1045 l 425 885 q 414 886 420 886 q 399 887 409 887 q 344 869 360 887 q 328 811 328 852 q 329 795 328 801 q 331 785 329 790 l 425 785 l 425 618 l 331 618 l 331 0 l 111 0 "},"“":{"x_min":84,"x_max":626,"ha":708,"o":"m 296 636 l 84 636 l 84 835 q 136 998 84 941 q 296 1068 188 1056 l 296 989 q 212 946 238 978 q 184 857 185 915 l 296 857 l 296 636 m 626 636 l 413 636 l 413 835 q 465 998 413 941 q 626 1068 518 1056 l 626 989 q 540 947 567 978 q 513 857 514 916 l 626 857 l 626 636 "},"A":{"x_min":10,"x_max":753,"ha":764,"o":"m 311 389 l 452 389 l 382 844 l 311 389 m 10 0 l 237 1044 l 527 1044 l 753 0 l 508 0 l 478 200 l 286 200 l 256 0 l 10 0 "},"O":{"x_min":64,"x_max":764,"ha":828,"o":"m 514 427 l 514 616 q 492 830 514 789 q 412 872 470 872 q 334 829 356 872 q 313 616 313 787 l 313 427 q 334 215 313 258 q 413 172 356 172 q 492 214 470 172 q 514 427 514 256 m 64 522 q 77 797 64 710 q 122 932 91 883 q 239 1035 167 1001 q 414 1069 312 1069 q 587 1035 516 1069 q 704 932 659 1001 q 750 796 736 883 q 764 522 764 709 q 750 247 764 334 q 704 111 736 160 q 587 8 660 42 q 414 -25 515 -25 q 239 8 312 -25 q 122 111 167 42 q 77 246 91 160 q 64 522 64 333 "},"π":{"x_min":28,"x_max":1154,"ha":1164,"o":"m 1126 574 l 1004 574 l 923 0 l 640 0 l 720 574 l 566 574 l 486 0 l 202 0 l 283 574 l 263 574 q 224 548 242 574 q 202 484 207 523 l 28 484 q 114 683 52 630 q 326 737 176 737 l 1154 737 l 1126 574 "},"‘":{"x_min":83,"x_max":295,"ha":379,"o":"m 295 636 l 83 636 l 83 835 q 135 999 83 941 q 295 1069 188 1057 l 295 989 q 210 946 236 978 q 183 858 183 915 l 295 858 l 295 636 "},"3":{"x_min":58,"x_max":690,"ha":745,"o":"m 59 346 l 277 346 q 299 203 279 246 q 360 161 318 161 q 423 199 402 161 q 445 312 445 237 q 406 426 445 391 q 280 461 368 461 q 259 460 266 461 q 245 459 251 460 l 245 624 l 267 624 q 391 657 353 624 q 429 768 429 691 q 411 847 429 819 q 360 875 393 875 q 302 842 320 875 q 283 723 285 810 l 69 723 l 69 736 q 150 967 69 884 q 373 1051 231 1051 q 583 976 502 1051 q 665 785 665 902 q 627 650 665 708 q 516 552 590 593 q 647 456 605 518 q 690 299 690 394 q 605 63 690 148 q 369 -21 520 -21 q 139 67 221 -21 q 58 315 58 155 q 58 330 58 320 q 59 346 59 341 "},"9":{"x_min":54,"x_max":679,"ha":745,"o":"m 437 394 q 360 357 398 369 q 282 346 322 346 q 110 426 166 346 q 54 672 54 507 q 130 957 54 863 q 362 1051 206 1051 q 496 1029 438 1051 q 596 963 554 1007 q 660 828 641 914 q 679 526 679 742 q 669 255 679 337 q 636 124 659 174 q 531 16 603 54 q 356 -21 459 -21 q 143 49 219 -21 q 68 250 68 119 l 290 249 q 309 175 291 200 q 360 151 326 151 q 421 188 403 151 q 438 320 438 226 q 438 365 438 349 q 437 394 438 381 m 443 699 q 424 833 443 794 q 360 872 405 872 q 305 833 321 872 q 289 695 289 795 q 306 561 289 600 q 367 522 324 522 q 426 557 409 522 q 443 699 443 593 "},"l":{"x_min":74,"x_max":292,"ha":367,"o":"m 292 0 l 74 0 l 74 1044 l 292 1044 l 292 0 "},"":{"x_min":22,"x_max":698,"ha":772,"o":"m 111 0 l 111 618 l 22 618 l 22 785 l 111 785 q 110 805 111 792 q 109 823 109 818 q 162 997 109 946 q 342 1048 214 1048 q 381 1046 361 1048 q 425 1043 402 1045 l 425 886 q 414 887 420 887 q 399 888 409 888 q 344 870 360 888 q 328 811 328 852 q 329 795 328 801 q 331 785 329 790 l 425 785 l 425 618 l 331 618 l 331 0 l 111 0 m 480 863 l 480 1053 l 698 1053 l 698 863 l 480 863 m 480 0 l 480 785 l 698 785 l 698 0 l 480 0 "},"4":{"x_min":43,"x_max":701,"ha":745,"o":"m 413 380 l 413 798 l 223 380 l 413 380 m 387 0 l 387 201 l 43 201 l 43 398 l 372 1032 l 611 1032 l 611 380 l 701 380 l 701 201 l 611 201 l 611 0 l 387 0 "},"Ü":{"x_min":85,"x_max":744,"ha":828,"o":"m 85 1044 l 332 1044 l 332 389 q 350 206 332 241 q 417 171 369 171 q 483 207 465 171 q 502 389 502 244 l 502 1044 l 744 1044 l 744 377 q 734 208 744 264 q 701 111 724 152 q 594 7 664 40 q 410 -25 523 -25 q 239 5 305 -25 q 135 104 173 36 q 96 227 107 152 q 85 482 85 303 l 85 1044 m 454 1139 l 454 1317 l 619 1317 l 619 1139 l 454 1139 m 214 1139 l 214 1317 l 379 1317 l 379 1139 l 214 1139 "},"à":{"x_min":43,"x_max":682.8125,"ha":725,"o":"m 426 377 q 302 318 341 353 q 263 230 263 283 q 282 170 263 192 q 334 148 301 148 q 404 180 382 148 q 426 290 426 213 l 426 377 m 453 0 l 440 71 q 350 6 399 28 q 243 -16 301 -16 q 96 43 150 -16 q 43 205 43 103 q 88 352 43 294 q 239 451 134 409 q 307 476 264 461 q 430 577 430 521 q 412 630 430 612 q 361 648 394 648 q 302 624 321 648 q 283 550 283 600 l 283 545 l 63 545 q 136 742 63 677 q 361 807 210 807 q 482 794 429 807 q 571 758 535 781 q 636 683 617 727 q 655 522 655 639 l 655 498 l 655 219 q 661 78 655 127 q 682 0 667 30 l 453 0 m 490 868 l 392 868 l 155 1061 l 355 1061 l 490 868 "},"ó":{"x_min":53,"x_max":636,"ha":690,"o":"m 275 392 q 289 184 275 226 q 344 143 304 143 q 399 183 384 143 q 414 392 414 223 q 399 601 414 561 q 344 642 384 642 q 289 599 304 642 q 275 392 275 557 m 53 392 q 118 713 53 621 q 344 806 184 806 q 570 714 504 806 q 636 392 636 622 q 570 70 636 162 q 344 -21 504 -21 q 118 70 183 -21 q 53 392 53 161 m 238 868 l 372 1061 l 573 1061 l 335 868 l 238 868 "}}}
